<?xml version="1.0" encoding="utf-8" standalone="no"?>
<!DOCTYPE svg PUBLIC "-//W3C//DTD SVG 1.1//EN"
  "http://www.w3.org/Graphics/SVG/1.1/DTD/svg11.dtd">
<!-- Created with matplotlib (http://matplotlib.sourceforge.net/) -->
<svg height="567pt" version="1.1" viewBox="0 0 999 567" width="999pt" xmlns="http://www.w3.org/2000/svg" xmlns:xlink="http://www.w3.org/1999/xlink">
 <defs>
  <style type="text/css">
*{stroke-linecap:square;stroke-linejoin:round;}
  </style>
 </defs>
 <g id="figure_1">
  <g id="patch_1">
   <path d="
M0 567
L999 567
L999 0
L0 0
z
" style="fill:#ffffff;"/>
  </g>
  <g id="axes_1">
   <g id="patch_2">
    <path d="
M124.875 510.3
L899.1 510.3
L899.1 56.7
L124.875 56.7
z
" style="fill:#ffffff;"/>
   </g>
   <g id="patch_3">
    <path clip-path="url(#pf532fa5deb)" d="
M124.875 510.3
L159.715 510.3
L159.715 430.204
L124.875 430.204
z
" style="fill:#bf00bf;stroke:#000000;"/>
   </g>
   <g id="patch_4">
    <path clip-path="url(#pf532fa5deb)" d="
M202.298 510.3
L237.138 510.3
L237.138 441.29
L202.298 441.29
z
" style="fill:#bf00bf;stroke:#000000;"/>
   </g>
   <g id="patch_5">
    <path clip-path="url(#pf532fa5deb)" d="
M279.72 510.3
L314.56 510.3
L314.56 445.019
L279.72 445.019
z
" style="fill:#bf00bf;stroke:#000000;"/>
   </g>
   <g id="patch_6">
    <path clip-path="url(#pf532fa5deb)" d="
M357.143 510.3
L391.983 510.3
L391.983 447.485
L357.143 447.485
z
" style="fill:#bf00bf;stroke:#000000;"/>
   </g>
   <g id="patch_7">
    <path clip-path="url(#pf532fa5deb)" d="
M434.565 510.3
L469.405 510.3
L469.405 450.766
L434.565 450.766
z
" style="fill:#bf00bf;stroke:#000000;"/>
   </g>
   <g id="patch_8">
    <path clip-path="url(#pf532fa5deb)" d="
M511.988 510.3
L546.828 510.3
L546.828 451.637
L511.988 451.637
z
" style="fill:#bf00bf;stroke:#000000;"/>
   </g>
   <g id="patch_9">
    <path clip-path="url(#pf532fa5deb)" d="
M589.41 510.3
L624.25 510.3
L624.25 453.777
L589.41 453.777
z
" style="fill:#bf00bf;stroke:#000000;"/>
   </g>
   <g id="patch_10">
    <path clip-path="url(#pf532fa5deb)" d="
M666.833 510.3
L701.673 510.3
L701.673 455.801
L666.833 455.801
z
" style="fill:#bf00bf;stroke:#000000;"/>
   </g>
   <g id="patch_11">
    <path clip-path="url(#pf532fa5deb)" d="
M744.255 510.3
L779.095 510.3
L779.095 458.429
L744.255 458.429
z
" style="fill:#bf00bf;stroke:#000000;"/>
   </g>
   <g id="patch_12">
    <path clip-path="url(#pf532fa5deb)" d="
M821.678 510.3
L856.518 510.3
L856.518 460.466
L821.678 460.466
z
" style="fill:#bf00bf;stroke:#000000;"/>
   </g>
   <g id="patch_13">
    <path clip-path="url(#pf532fa5deb)" d="
M124.875 430.204
L159.715 430.204
L159.715 368.291
L124.875 368.291
z
" style="fill:#ff0000;stroke:#000000;"/>
   </g>
   <g id="patch_14">
    <path clip-path="url(#pf532fa5deb)" d="
M202.298 441.29
L237.138 441.29
L237.138 392.682
L202.298 392.682
z
" style="fill:#ff0000;stroke:#000000;"/>
   </g>
   <g id="patch_15">
    <path clip-path="url(#pf532fa5deb)" d="
M279.72 445.019
L314.56 445.019
L314.56 406.931
L279.72 406.931
z
" style="fill:#ff0000;stroke:#000000;"/>
   </g>
   <g id="patch_16">
    <path clip-path="url(#pf532fa5deb)" d="
M357.143 447.485
L391.983 447.485
L391.983 407.234
L357.143 407.234
z
" style="fill:#ff0000;stroke:#000000;"/>
   </g>
   <g id="patch_17">
    <path clip-path="url(#pf532fa5deb)" d="
M434.565 450.766
L469.405 450.766
L469.405 410.883
L434.565 410.883
z
" style="fill:#ff0000;stroke:#000000;"/>
   </g>
   <g id="patch_18">
    <path clip-path="url(#pf532fa5deb)" d="
M511.988 451.637
L546.828 451.637
L546.828 417.004
L511.988 417.004
z
" style="fill:#ff0000;stroke:#000000;"/>
   </g>
   <g id="patch_19">
    <path clip-path="url(#pf532fa5deb)" d="
M589.41 453.777
L624.25 453.777
L624.25 417.09
L589.41 417.09
z
" style="fill:#ff0000;stroke:#000000;"/>
   </g>
   <g id="patch_20">
    <path clip-path="url(#pf532fa5deb)" d="
M666.833 455.801
L701.673 455.801
L701.673 418.788
L666.833 418.788
z
" style="fill:#ff0000;stroke:#000000;"/>
   </g>
   <g id="patch_21">
    <path clip-path="url(#pf532fa5deb)" d="
M744.255 458.429
L779.095 458.429
L779.095 427.817
L744.255 427.817
z
" style="fill:#ff0000;stroke:#000000;"/>
   </g>
   <g id="patch_22">
    <path clip-path="url(#pf532fa5deb)" d="
M821.678 460.466
L856.518 460.466
L856.518 430.933
L821.678 430.933
z
" style="fill:#ff0000;stroke:#000000;"/>
   </g>
   <g id="patch_23">
    <path clip-path="url(#pf532fa5deb)" d="
M159.715 510.3
L194.555 510.3
L194.555 465.984
L159.715 465.984
z
" style="fill:#0000ff;stroke:#000000;"/>
   </g>
   <g id="patch_24">
    <path clip-path="url(#pf532fa5deb)" d="
M237.138 510.3
L271.978 510.3
L271.978 469.388
L237.138 469.388
z
" style="fill:#0000ff;stroke:#000000;"/>
   </g>
   <g id="patch_25">
    <path clip-path="url(#pf532fa5deb)" d="
M314.56 510.3
L349.4 510.3
L349.4 469.91
L314.56 469.91
z
" style="fill:#0000ff;stroke:#000000;"/>
   </g>
   <g id="patch_26">
    <path clip-path="url(#pf532fa5deb)" d="
M391.983 510.3
L426.823 510.3
L426.823 470.325
L391.983 470.325
z
" style="fill:#0000ff;stroke:#000000;"/>
   </g>
   <g id="patch_27">
    <path clip-path="url(#pf532fa5deb)" d="
M469.405 510.3
L504.245 510.3
L504.245 470.719
L469.405 470.719
z
" style="fill:#0000ff;stroke:#000000;"/>
   </g>
   <g id="patch_28">
    <path clip-path="url(#pf532fa5deb)" d="
M546.828 510.3
L581.668 510.3
L581.668 471.147
L546.828 471.147
z
" style="fill:#0000ff;stroke:#000000;"/>
   </g>
   <g id="patch_29">
    <path clip-path="url(#pf532fa5deb)" d="
M624.25 510.3
L659.09 510.3
L659.09 471.454
L624.25 471.454
z
" style="fill:#0000ff;stroke:#000000;"/>
   </g>
   <g id="patch_30">
    <path clip-path="url(#pf532fa5deb)" d="
M701.673 510.3
L736.513 510.3
L736.513 471.675
L701.673 471.675
z
" style="fill:#0000ff;stroke:#000000;"/>
   </g>
   <g id="patch_31">
    <path clip-path="url(#pf532fa5deb)" d="
M779.095 510.3
L813.935 510.3
L813.935 472.053
L779.095 472.053
z
" style="fill:#0000ff;stroke:#000000;"/>
   </g>
   <g id="patch_32">
    <path clip-path="url(#pf532fa5deb)" d="
M856.518 510.3
L891.358 510.3
L891.358 472.417
L856.518 472.417
z
" style="fill:#0000ff;stroke:#000000;"/>
   </g>
   <g id="patch_33">
    <path clip-path="url(#pf532fa5deb)" d="
M159.715 465.984
L194.555 465.984
L194.555 246.977
L159.715 246.977
z
" style="fill:#008000;stroke:#000000;"/>
   </g>
   <g id="patch_34">
    <path clip-path="url(#pf532fa5deb)" d="
M237.138 469.388
L271.978 469.388
L271.978 163.667
L237.138 163.667
z
" style="fill:#008000;stroke:#000000;"/>
   </g>
   <g id="patch_35">
    <path clip-path="url(#pf532fa5deb)" d="
M314.56 469.91
L349.4 469.91
L349.4 205.051
L314.56 205.051
z
" style="fill:#008000;stroke:#000000;"/>
   </g>
   <g id="patch_36">
    <path clip-path="url(#pf532fa5deb)" d="
M391.983 470.325
L426.823 470.325
L426.823 216.04
L391.983 216.04
z
" style="fill:#008000;stroke:#000000;"/>
   </g>
   <g id="patch_37">
    <path clip-path="url(#pf532fa5deb)" d="
M469.405 470.719
L504.245 470.719
L504.245 252.267
L469.405 252.267
z
" style="fill:#008000;stroke:#000000;"/>
   </g>
   <g id="patch_38">
    <path clip-path="url(#pf532fa5deb)" d="
M546.828 471.147
L581.668 471.147
L581.668 268.849
L546.828 268.849
z
" style="fill:#008000;stroke:#000000;"/>
   </g>
   <g id="patch_39">
    <path clip-path="url(#pf532fa5deb)" d="
M624.25 471.454
L659.09 471.454
L659.09 298.812
L624.25 298.812
z
" style="fill:#008000;stroke:#000000;"/>
   </g>
   <g id="patch_40">
    <path clip-path="url(#pf532fa5deb)" d="
M701.673 471.675
L736.513 471.675
L736.513 320.694
L701.673 320.694
z
" style="fill:#008000;stroke:#000000;"/>
   </g>
   <g id="patch_41">
    <path clip-path="url(#pf532fa5deb)" d="
M779.095 472.053
L813.935 472.053
L813.935 339.038
L779.095 339.038
z
" style="fill:#008000;stroke:#000000;"/>
   </g>
   <g id="patch_42">
    <path clip-path="url(#pf532fa5deb)" d="
M856.518 472.417
L891.358 472.417
L891.358 352.475
L856.518 352.475
z
" style="fill:#008000;stroke:#000000;"/>
   </g>
   <g id="LineCollection_1">
    <defs>
     <path d="
M142.295 -129.03
L142.295 -144.561" id="C0_0_e47a030359"/>
     <path d="
M219.718 -119.485
L219.718 -131.936" id="C0_1_de3f982855"/>
     <path d="
M297.14 -116.499
L297.14 -127.463" id="C0_2_1b7367b21a"/>
     <path d="
M374.563 -113.911
L374.563 -125.118" id="C0_3_a4f87e4331"/>
     <path d="
M451.985 -110.733
L451.985 -121.736" id="C0_4_a3d9c4bd44"/>
     <path d="
M529.408 -109.956
L529.408 -120.771" id="C0_5_d1a0325471"/>
     <path d="
M606.83 -107.99
L606.83 -118.456" id="C0_6_af5f306f7b"/>
     <path d="
M684.253 -106.395
L684.253 -116.003" id="C0_7_955328d80a"/>
     <path d="
M761.675 -104.395
L761.675 -112.748" id="C0_8_cdfd1c148a"/>
     <path d="
M839.098 -101.858
L839.098 -111.21" id="C0_9_8a6f1c79dd"/>
    </defs>
    <g clip-path="url(#pf532fa5deb)">
     <use style="fill:none;stroke:#0000ff;stroke-linecap:butt;" x="0" xlink:href="#C0_0_e47a030359" y="567.0"/>
    </g>
    <g clip-path="url(#pf532fa5deb)">
     <use style="fill:none;stroke:#0000ff;stroke-linecap:butt;" x="0" xlink:href="#C0_1_de3f982855" y="567.0"/>
    </g>
    <g clip-path="url(#pf532fa5deb)">
     <use style="fill:none;stroke:#0000ff;stroke-linecap:butt;" x="0" xlink:href="#C0_2_1b7367b21a" y="567.0"/>
    </g>
    <g clip-path="url(#pf532fa5deb)">
     <use style="fill:none;stroke:#0000ff;stroke-linecap:butt;" x="0" xlink:href="#C0_3_a4f87e4331" y="567.0"/>
    </g>
    <g clip-path="url(#pf532fa5deb)">
     <use style="fill:none;stroke:#0000ff;stroke-linecap:butt;" x="0" xlink:href="#C0_4_a3d9c4bd44" y="567.0"/>
    </g>
    <g clip-path="url(#pf532fa5deb)">
     <use style="fill:none;stroke:#0000ff;stroke-linecap:butt;" x="0" xlink:href="#C0_5_d1a0325471" y="567.0"/>
    </g>
    <g clip-path="url(#pf532fa5deb)">
     <use style="fill:none;stroke:#0000ff;stroke-linecap:butt;" x="0" xlink:href="#C0_6_af5f306f7b" y="567.0"/>
    </g>
    <g clip-path="url(#pf532fa5deb)">
     <use style="fill:none;stroke:#0000ff;stroke-linecap:butt;" x="0" xlink:href="#C0_7_955328d80a" y="567.0"/>
    </g>
    <g clip-path="url(#pf532fa5deb)">
     <use style="fill:none;stroke:#0000ff;stroke-linecap:butt;" x="0" xlink:href="#C0_8_cdfd1c148a" y="567.0"/>
    </g>
    <g clip-path="url(#pf532fa5deb)">
     <use style="fill:none;stroke:#0000ff;stroke-linecap:butt;" x="0" xlink:href="#C0_9_8a6f1c79dd" y="567.0"/>
    </g>
   </g>
   <g id="LineCollection_2">
    <defs>
     <path d="
M142.295 -187.122
L142.295 -210.297" id="C1_0_d1f63f3850"/>
     <path d="
M219.718 -165.671
L219.718 -182.965" id="C1_1_578b8fb26a"/>
     <path d="
M297.14 -151.928
L297.14 -168.21" id="C1_2_40a1ecca29"/>
     <path d="
M374.563 -151.653
L374.563 -167.88" id="C1_3_4b642696aa"/>
     <path d="
M451.985 -147.894
L451.985 -164.34" id="C1_4_16122d82ec"/>
     <path d="
M529.408 -142.018
L529.408 -157.975" id="C1_5_5fe172704b"/>
     <path d="
M606.83 -142.081
L606.83 -157.739" id="C1_6_c0bc3714b4"/>
     <path d="
M684.253 -141.088
L684.253 -155.337" id="C1_7_a38815f7d9"/>
     <path d="
M761.675 -133.074
L761.675 -145.291" id="C1_8_6d70dfa63a"/>
     <path d="
M839.098 -129.193
L839.098 -142.941" id="C1_9_596a47fc42"/>
    </defs>
    <g clip-path="url(#pf532fa5deb)">
     <use style="fill:none;stroke:#008000;stroke-linecap:butt;" x="0" xlink:href="#C1_0_d1f63f3850" y="567.0"/>
    </g>
    <g clip-path="url(#pf532fa5deb)">
     <use style="fill:none;stroke:#008000;stroke-linecap:butt;" x="0" xlink:href="#C1_1_578b8fb26a" y="567.0"/>
    </g>
    <g clip-path="url(#pf532fa5deb)">
     <use style="fill:none;stroke:#008000;stroke-linecap:butt;" x="0" xlink:href="#C1_2_40a1ecca29" y="567.0"/>
    </g>
    <g clip-path="url(#pf532fa5deb)">
     <use style="fill:none;stroke:#008000;stroke-linecap:butt;" x="0" xlink:href="#C1_3_4b642696aa" y="567.0"/>
    </g>
    <g clip-path="url(#pf532fa5deb)">
     <use style="fill:none;stroke:#008000;stroke-linecap:butt;" x="0" xlink:href="#C1_4_16122d82ec" y="567.0"/>
    </g>
    <g clip-path="url(#pf532fa5deb)">
     <use style="fill:none;stroke:#008000;stroke-linecap:butt;" x="0" xlink:href="#C1_5_5fe172704b" y="567.0"/>
    </g>
    <g clip-path="url(#pf532fa5deb)">
     <use style="fill:none;stroke:#008000;stroke-linecap:butt;" x="0" xlink:href="#C1_6_c0bc3714b4" y="567.0"/>
    </g>
    <g clip-path="url(#pf532fa5deb)">
     <use style="fill:none;stroke:#008000;stroke-linecap:butt;" x="0" xlink:href="#C1_7_a38815f7d9" y="567.0"/>
    </g>
    <g clip-path="url(#pf532fa5deb)">
     <use style="fill:none;stroke:#008000;stroke-linecap:butt;" x="0" xlink:href="#C1_8_6d70dfa63a" y="567.0"/>
    </g>
    <g clip-path="url(#pf532fa5deb)">
     <use style="fill:none;stroke:#008000;stroke-linecap:butt;" x="0" xlink:href="#C1_9_596a47fc42" y="567.0"/>
    </g>
   </g>
   <g id="LineCollection_3">
    <defs>
     <path d="
M177.135 -96.3778
L177.135 -105.654" id="C2_0_0b72168cbf"/>
     <path d="
M254.558 -93.2849
L254.558 -101.94" id="C2_1_f7bba0199a"/>
     <path d="
M331.98 -92.9463
L331.98 -101.234" id="C2_2_1222276c48"/>
     <path d="
M409.403 -92.6672
L409.403 -100.683" id="C2_3_3d85830fba"/>
     <path d="
M486.825 -92.355
L486.825 -100.208" id="C2_4_b4c9a7079d"/>
     <path d="
M564.248 -91.9493
L564.248 -99.7573" id="C2_5_80ea4fa0e0"/>
     <path d="
M641.67 -91.6916
L641.67 -99.4007" id="C2_6_89851b9190"/>
     <path d="
M719.093 -91.4728
L719.093 -99.1768" id="C2_7_0fe42f587b"/>
     <path d="
M796.515 -91.1631
L796.515 -98.7306" id="C2_8_6715e2f9ec"/>
     <path d="
M873.938 -90.9151
L873.938 -98.2501" id="C2_9_78ad2f404e"/>
    </defs>
    <g clip-path="url(#pf532fa5deb)">
     <use style="fill:none;stroke:#ff0000;stroke-linecap:butt;" x="0" xlink:href="#C2_0_0b72168cbf" y="567.0"/>
    </g>
    <g clip-path="url(#pf532fa5deb)">
     <use style="fill:none;stroke:#ff0000;stroke-linecap:butt;" x="0" xlink:href="#C2_1_f7bba0199a" y="567.0"/>
    </g>
    <g clip-path="url(#pf532fa5deb)">
     <use style="fill:none;stroke:#ff0000;stroke-linecap:butt;" x="0" xlink:href="#C2_2_1222276c48" y="567.0"/>
    </g>
    <g clip-path="url(#pf532fa5deb)">
     <use style="fill:none;stroke:#ff0000;stroke-linecap:butt;" x="0" xlink:href="#C2_3_3d85830fba" y="567.0"/>
    </g>
    <g clip-path="url(#pf532fa5deb)">
     <use style="fill:none;stroke:#ff0000;stroke-linecap:butt;" x="0" xlink:href="#C2_4_b4c9a7079d" y="567.0"/>
    </g>
    <g clip-path="url(#pf532fa5deb)">
     <use style="fill:none;stroke:#ff0000;stroke-linecap:butt;" x="0" xlink:href="#C2_5_80ea4fa0e0" y="567.0"/>
    </g>
    <g clip-path="url(#pf532fa5deb)">
     <use style="fill:none;stroke:#ff0000;stroke-linecap:butt;" x="0" xlink:href="#C2_6_89851b9190" y="567.0"/>
    </g>
    <g clip-path="url(#pf532fa5deb)">
     <use style="fill:none;stroke:#ff0000;stroke-linecap:butt;" x="0" xlink:href="#C2_7_0fe42f587b" y="567.0"/>
    </g>
    <g clip-path="url(#pf532fa5deb)">
     <use style="fill:none;stroke:#ff0000;stroke-linecap:butt;" x="0" xlink:href="#C2_8_6715e2f9ec" y="567.0"/>
    </g>
    <g clip-path="url(#pf532fa5deb)">
     <use style="fill:none;stroke:#ff0000;stroke-linecap:butt;" x="0" xlink:href="#C2_9_78ad2f404e" y="567.0"/>
    </g>
   </g>
   <g id="LineCollection_4">
    <defs>
     <path d="
M177.135 -280.717
L177.135 -359.328" id="C3_0_60b3c3cba7"/>
     <path d="
M254.558 -370.517
L254.558 -436.149" id="C3_1_bbb6659ca4"/>
     <path d="
M331.98 -320.963
L331.98 -402.935" id="C3_2_04bb3cc980"/>
     <path d="
M409.403 -334.975
L409.403 -366.946" id="C3_3_6d27eb1746"/>
     <path d="
M486.825 -296.761
L486.825 -332.704" id="C3_4_101f5178b1"/>
     <path d="
M564.248 -281.444
L564.248 -314.858" id="C3_5_f2bb06aea5"/>
     <path d="
M641.67 -251.116
L641.67 -285.261" id="C3_6_9e50a71674"/>
     <path d="
M719.093 -232.72
L719.093 -259.893" id="C3_7_fb659b2899"/>
     <path d="
M796.515 -216.569
L796.515 -239.355" id="C3_8_89ffbb64f3"/>
     <path d="
M873.938 -203.765
L873.938 -225.286" id="C3_9_c5e001ad5d"/>
    </defs>
    <g clip-path="url(#pf532fa5deb)">
     <use style="fill:none;stroke:#00bfbf;stroke-linecap:butt;" x="0" xlink:href="#C3_0_60b3c3cba7" y="567.0"/>
    </g>
    <g clip-path="url(#pf532fa5deb)">
     <use style="fill:none;stroke:#00bfbf;stroke-linecap:butt;" x="0" xlink:href="#C3_1_bbb6659ca4" y="567.0"/>
    </g>
    <g clip-path="url(#pf532fa5deb)">
     <use style="fill:none;stroke:#00bfbf;stroke-linecap:butt;" x="0" xlink:href="#C3_2_04bb3cc980" y="567.0"/>
    </g>
    <g clip-path="url(#pf532fa5deb)">
     <use style="fill:none;stroke:#00bfbf;stroke-linecap:butt;" x="0" xlink:href="#C3_3_6d27eb1746" y="567.0"/>
    </g>
    <g clip-path="url(#pf532fa5deb)">
     <use style="fill:none;stroke:#00bfbf;stroke-linecap:butt;" x="0" xlink:href="#C3_4_101f5178b1" y="567.0"/>
    </g>
    <g clip-path="url(#pf532fa5deb)">
     <use style="fill:none;stroke:#00bfbf;stroke-linecap:butt;" x="0" xlink:href="#C3_5_f2bb06aea5" y="567.0"/>
    </g>
    <g clip-path="url(#pf532fa5deb)">
     <use style="fill:none;stroke:#00bfbf;stroke-linecap:butt;" x="0" xlink:href="#C3_6_9e50a71674" y="567.0"/>
    </g>
    <g clip-path="url(#pf532fa5deb)">
     <use style="fill:none;stroke:#00bfbf;stroke-linecap:butt;" x="0" xlink:href="#C3_7_fb659b2899" y="567.0"/>
    </g>
    <g clip-path="url(#pf532fa5deb)">
     <use style="fill:none;stroke:#00bfbf;stroke-linecap:butt;" x="0" xlink:href="#C3_8_89ffbb64f3" y="567.0"/>
    </g>
    <g clip-path="url(#pf532fa5deb)">
     <use style="fill:none;stroke:#00bfbf;stroke-linecap:butt;" x="0" xlink:href="#C3_9_c5e001ad5d" y="567.0"/>
    </g>
   </g>
   <g id="line2d_1">
    <defs>
     <path d="
M3 1.83691e-16
L-3 -1.83691e-16" id="m02bf4eaaf5" style="stroke:#0000ff;stroke-linecap:butt;stroke-width:0.5;"/>
    </defs>
    <g clip-path="url(#pf532fa5deb)">
     <use style="fill:#0000ff;stroke:#0000ff;stroke-linecap:butt;stroke-width:0.5;" x="142.2950625" xlink:href="#m02bf4eaaf5" y="437.97035016"/>
     <use style="fill:#0000ff;stroke:#0000ff;stroke-linecap:butt;stroke-width:0.5;" x="219.7175625" xlink:href="#m02bf4eaaf5" y="447.51528864"/>
     <use style="fill:#0000ff;stroke:#0000ff;stroke-linecap:butt;stroke-width:0.5;" x="297.1400625" xlink:href="#m02bf4eaaf5" y="450.50089896"/>
     <use style="fill:#0000ff;stroke:#0000ff;stroke-linecap:butt;stroke-width:0.5;" x="374.5625625" xlink:href="#m02bf4eaaf5" y="453.08852064"/>
     <use style="fill:#0000ff;stroke:#0000ff;stroke-linecap:butt;stroke-width:0.5;" x="451.9850625" xlink:href="#m02bf4eaaf5" y="456.26707728"/>
     <use style="fill:#0000ff;stroke:#0000ff;stroke-linecap:butt;stroke-width:0.5;" x="529.4075625" xlink:href="#m02bf4eaaf5" y="457.04421504"/>
     <use style="fill:#0000ff;stroke:#0000ff;stroke-linecap:butt;stroke-width:0.5;" x="606.8300625" xlink:href="#m02bf4eaaf5" y="459.01017792"/>
     <use style="fill:#0000ff;stroke:#0000ff;stroke-linecap:butt;stroke-width:0.5;" x="684.2525625" xlink:href="#m02bf4eaaf5" y="460.60533792"/>
     <use style="fill:#0000ff;stroke:#0000ff;stroke-linecap:butt;stroke-width:0.5;" x="761.6750625" xlink:href="#m02bf4eaaf5" y="462.6049428"/>
     <use style="fill:#0000ff;stroke:#0000ff;stroke-linecap:butt;stroke-width:0.5;" x="839.0975625" xlink:href="#m02bf4eaaf5" y="465.14161008"/>
    </g>
   </g>
   <g id="line2d_2">
    <g clip-path="url(#pf532fa5deb)">
     <use style="fill:#0000ff;stroke:#0000ff;stroke-linecap:butt;stroke-width:0.5;" x="142.2950625" xlink:href="#m02bf4eaaf5" y="422.43863256"/>
     <use style="fill:#0000ff;stroke:#0000ff;stroke-linecap:butt;stroke-width:0.5;" x="219.7175625" xlink:href="#m02bf4eaaf5" y="435.06418032"/>
     <use style="fill:#0000ff;stroke:#0000ff;stroke-linecap:butt;stroke-width:0.5;" x="297.1400625" xlink:href="#m02bf4eaaf5" y="439.53669144"/>
     <use style="fill:#0000ff;stroke:#0000ff;stroke-linecap:butt;stroke-width:0.5;" x="374.5625625" xlink:href="#m02bf4eaaf5" y="441.8821512"/>
     <use style="fill:#0000ff;stroke:#0000ff;stroke-linecap:butt;stroke-width:0.5;" x="451.9850625" xlink:href="#m02bf4eaaf5" y="445.26425328"/>
     <use style="fill:#0000ff;stroke:#0000ff;stroke-linecap:butt;stroke-width:0.5;" x="529.4075625" xlink:href="#m02bf4eaaf5" y="446.2294536"/>
     <use style="fill:#0000ff;stroke:#0000ff;stroke-linecap:butt;stroke-width:0.5;" x="606.8300625" xlink:href="#m02bf4eaaf5" y="448.54405344"/>
     <use style="fill:#0000ff;stroke:#0000ff;stroke-linecap:butt;stroke-width:0.5;" x="684.2525625" xlink:href="#m02bf4eaaf5" y="450.99654768"/>
     <use style="fill:#0000ff;stroke:#0000ff;stroke-linecap:butt;stroke-width:0.5;" x="761.6750625" xlink:href="#m02bf4eaaf5" y="454.25208024"/>
     <use style="fill:#0000ff;stroke:#0000ff;stroke-linecap:butt;stroke-width:0.5;" x="839.0975625" xlink:href="#m02bf4eaaf5" y="455.78995056"/>
    </g>
   </g>
   <g id="line2d_3">
    <defs>
     <path d="
M3 1.83691e-16
L-3 -1.83691e-16" id="mb93a2a9965" style="stroke:#008000;stroke-linecap:butt;stroke-width:0.5;"/>
    </defs>
    <g clip-path="url(#pf532fa5deb)">
     <use style="fill:#008000;stroke:#008000;stroke-linecap:butt;stroke-width:0.5;" x="142.2950625" xlink:href="#mb93a2a9965" y="379.87794936"/>
     <use style="fill:#008000;stroke:#008000;stroke-linecap:butt;stroke-width:0.5;" x="219.7175625" xlink:href="#mb93a2a9965" y="401.32851192"/>
     <use style="fill:#008000;stroke:#008000;stroke-linecap:butt;stroke-width:0.5;" x="297.1400625" xlink:href="#mb93a2a9965" y="415.07186616"/>
     <use style="fill:#008000;stroke:#008000;stroke-linecap:butt;stroke-width:0.5;" x="374.5625625" xlink:href="#mb93a2a9965" y="415.34671752"/>
     <use style="fill:#008000;stroke:#008000;stroke-linecap:butt;stroke-width:0.5;" x="451.9850625" xlink:href="#mb93a2a9965" y="419.10588216"/>
     <use style="fill:#008000;stroke:#008000;stroke-linecap:butt;stroke-width:0.5;" x="529.4075625" xlink:href="#mb93a2a9965" y="424.98219456"/>
     <use style="fill:#008000;stroke:#008000;stroke-linecap:butt;stroke-width:0.5;" x="606.8300625" xlink:href="#mb93a2a9965" y="424.91891736"/>
     <use style="fill:#008000;stroke:#008000;stroke-linecap:butt;stroke-width:0.5;" x="684.2525625" xlink:href="#mb93a2a9965" y="425.91227112"/>
     <use style="fill:#008000;stroke:#008000;stroke-linecap:butt;stroke-width:0.5;" x="761.6750625" xlink:href="#mb93a2a9965" y="433.92561408"/>
     <use style="fill:#008000;stroke:#008000;stroke-linecap:butt;stroke-width:0.5;" x="839.0975625" xlink:href="#mb93a2a9965" y="437.80741704"/>
    </g>
   </g>
   <g id="line2d_4">
    <g clip-path="url(#pf532fa5deb)">
     <use style="fill:#008000;stroke:#008000;stroke-linecap:butt;stroke-width:0.5;" x="142.2950625" xlink:href="#mb93a2a9965" y="356.70307176"/>
     <use style="fill:#008000;stroke:#008000;stroke-linecap:butt;stroke-width:0.5;" x="219.7175625" xlink:href="#mb93a2a9965" y="384.03455832"/>
     <use style="fill:#008000;stroke:#008000;stroke-linecap:butt;stroke-width:0.5;" x="297.1400625" xlink:href="#mb93a2a9965" y="398.79028728"/>
     <use style="fill:#008000;stroke:#008000;stroke-linecap:butt;stroke-width:0.5;" x="374.5625625" xlink:href="#mb93a2a9965" y="399.1202964"/>
     <use style="fill:#008000;stroke:#008000;stroke-linecap:butt;stroke-width:0.5;" x="451.9850625" xlink:href="#mb93a2a9965" y="402.66000936"/>
     <use style="fill:#008000;stroke:#008000;stroke-linecap:butt;stroke-width:0.5;" x="529.4075625" xlink:href="#mb93a2a9965" y="409.0248792"/>
     <use style="fill:#008000;stroke:#008000;stroke-linecap:butt;stroke-width:0.5;" x="606.8300625" xlink:href="#mb93a2a9965" y="409.26088728"/>
     <use style="fill:#008000;stroke:#008000;stroke-linecap:butt;stroke-width:0.5;" x="684.2525625" xlink:href="#mb93a2a9965" y="411.6630924"/>
     <use style="fill:#008000;stroke:#008000;stroke-linecap:butt;stroke-width:0.5;" x="761.6750625" xlink:href="#mb93a2a9965" y="421.70898672"/>
     <use style="fill:#008000;stroke:#008000;stroke-linecap:butt;stroke-width:0.5;" x="839.0975625" xlink:href="#mb93a2a9965" y="424.05916392"/>
    </g>
   </g>
   <g id="line2d_5">
    <defs>
     <path d="
M3 1.83691e-16
L-3 -1.83691e-16" id="mb427f09dbc" style="stroke:#ff0000;stroke-linecap:butt;stroke-width:0.5;"/>
    </defs>
    <g clip-path="url(#pf532fa5deb)">
     <use style="fill:#ff0000;stroke:#ff0000;stroke-linecap:butt;stroke-width:0.5;" x="177.1351875" xlink:href="#mb427f09dbc" y="470.6222472"/>
     <use style="fill:#ff0000;stroke:#ff0000;stroke-linecap:butt;stroke-width:0.5;" x="254.5576875" xlink:href="#mb427f09dbc" y="473.71508856"/>
     <use style="fill:#ff0000;stroke:#ff0000;stroke-linecap:butt;stroke-width:0.5;" x="331.9801875" xlink:href="#mb427f09dbc" y="474.0536556"/>
     <use style="fill:#ff0000;stroke:#ff0000;stroke-linecap:butt;stroke-width:0.5;" x="409.4026875" xlink:href="#mb427f09dbc" y="474.3327708"/>
     <use style="fill:#ff0000;stroke:#ff0000;stroke-linecap:butt;stroke-width:0.5;" x="486.8251875" xlink:href="#mb427f09dbc" y="474.64496856"/>
     <use style="fill:#ff0000;stroke:#ff0000;stroke-linecap:butt;stroke-width:0.5;" x="564.2476875" xlink:href="#mb427f09dbc" y="475.0506684"/>
     <use style="fill:#ff0000;stroke:#ff0000;stroke-linecap:butt;stroke-width:0.5;" x="641.6701875" xlink:href="#mb427f09dbc" y="475.30840392"/>
     <use style="fill:#ff0000;stroke:#ff0000;stroke-linecap:butt;stroke-width:0.5;" x="719.0926875" xlink:href="#mb427f09dbc" y="475.5271752"/>
     <use style="fill:#ff0000;stroke:#ff0000;stroke-linecap:butt;stroke-width:0.5;" x="796.5151875" xlink:href="#mb427f09dbc" y="475.8369084"/>
     <use style="fill:#ff0000;stroke:#ff0000;stroke-linecap:butt;stroke-width:0.5;" x="873.9376875" xlink:href="#mb427f09dbc" y="476.0848764"/>
    </g>
   </g>
   <g id="line2d_6">
    <g clip-path="url(#pf532fa5deb)">
     <use style="fill:#ff0000;stroke:#ff0000;stroke-linecap:butt;stroke-width:0.5;" x="177.1351875" xlink:href="#mb427f09dbc" y="461.34558288"/>
     <use style="fill:#ff0000;stroke:#ff0000;stroke-linecap:butt;stroke-width:0.5;" x="254.5576875" xlink:href="#mb427f09dbc" y="465.06030984"/>
     <use style="fill:#ff0000;stroke:#ff0000;stroke-linecap:butt;stroke-width:0.5;" x="331.9801875" xlink:href="#mb427f09dbc" y="465.76596024"/>
     <use style="fill:#ff0000;stroke:#ff0000;stroke-linecap:butt;stroke-width:0.5;" x="409.4026875" xlink:href="#mb427f09dbc" y="466.31747736"/>
     <use style="fill:#ff0000;stroke:#ff0000;stroke-linecap:butt;stroke-width:0.5;" x="486.8251875" xlink:href="#mb427f09dbc" y="466.7922756"/>
     <use style="fill:#ff0000;stroke:#ff0000;stroke-linecap:butt;stroke-width:0.5;" x="564.2476875" xlink:href="#mb427f09dbc" y="467.2427004"/>
     <use style="fill:#ff0000;stroke:#ff0000;stroke-linecap:butt;stroke-width:0.5;" x="641.6701875" xlink:href="#mb427f09dbc" y="467.59932072"/>
     <use style="fill:#ff0000;stroke:#ff0000;stroke-linecap:butt;stroke-width:0.5;" x="719.0926875" xlink:href="#mb427f09dbc" y="467.82317232"/>
     <use style="fill:#ff0000;stroke:#ff0000;stroke-linecap:butt;stroke-width:0.5;" x="796.5151875" xlink:href="#mb427f09dbc" y="468.26943912"/>
     <use style="fill:#ff0000;stroke:#ff0000;stroke-linecap:butt;stroke-width:0.5;" x="873.9376875" xlink:href="#mb427f09dbc" y="468.749862"/>
    </g>
   </g>
   <g id="line2d_7">
    <defs>
     <path d="
M3 1.83691e-16
L-3 -1.83691e-16" id="m51ef10c9e2" style="stroke:#00bfbf;stroke-linecap:butt;stroke-width:0.5;"/>
    </defs>
    <g clip-path="url(#pf532fa5deb)">
     <use style="fill:#00bfbf;stroke:#00bfbf;stroke-linecap:butt;stroke-width:0.5;" x="177.1351875" xlink:href="#m51ef10c9e2" y="286.28288136"/>
     <use style="fill:#00bfbf;stroke:#00bfbf;stroke-linecap:butt;stroke-width:0.5;" x="254.5576875" xlink:href="#m51ef10c9e2" y="196.48263096"/>
     <use style="fill:#00bfbf;stroke:#00bfbf;stroke-linecap:butt;stroke-width:0.5;" x="331.9801875" xlink:href="#m51ef10c9e2" y="246.03743304"/>
     <use style="fill:#00bfbf;stroke:#00bfbf;stroke-linecap:butt;stroke-width:0.5;" x="409.4026875" xlink:href="#m51ef10c9e2" y="232.02513936"/>
     <use style="fill:#00bfbf;stroke:#00bfbf;stroke-linecap:butt;stroke-width:0.5;" x="486.8251875" xlink:href="#m51ef10c9e2" y="270.23888304"/>
     <use style="fill:#00bfbf;stroke:#00bfbf;stroke-linecap:butt;stroke-width:0.5;" x="564.2476875" xlink:href="#m51ef10c9e2" y="285.55625952"/>
     <use style="fill:#00bfbf;stroke:#00bfbf;stroke-linecap:butt;stroke-width:0.5;" x="641.6701875" xlink:href="#m51ef10c9e2" y="315.88428816"/>
     <use style="fill:#00bfbf;stroke:#00bfbf;stroke-linecap:butt;stroke-width:0.5;" x="719.0926875" xlink:href="#m51ef10c9e2" y="334.28027808"/>
     <use style="fill:#00bfbf;stroke:#00bfbf;stroke-linecap:butt;stroke-width:0.5;" x="796.5151875" xlink:href="#m51ef10c9e2" y="350.43099336"/>
     <use style="fill:#00bfbf;stroke:#00bfbf;stroke-linecap:butt;stroke-width:0.5;" x="873.9376875" xlink:href="#m51ef10c9e2" y="363.23533512"/>
    </g>
   </g>
   <g id="line2d_8">
    <g clip-path="url(#pf532fa5deb)">
     <use style="fill:#00bfbf;stroke:#00bfbf;stroke-linecap:butt;stroke-width:0.5;" x="177.1351875" xlink:href="#m51ef10c9e2" y="207.67164264"/>
     <use style="fill:#00bfbf;stroke:#00bfbf;stroke-linecap:butt;stroke-width:0.5;" x="254.5576875" xlink:href="#m51ef10c9e2" y="130.85121672"/>
     <use style="fill:#00bfbf;stroke:#00bfbf;stroke-linecap:butt;stroke-width:0.5;" x="331.9801875" xlink:href="#m51ef10c9e2" y="164.06547192"/>
     <use style="fill:#00bfbf;stroke:#00bfbf;stroke-linecap:butt;stroke-width:0.5;" x="409.4026875" xlink:href="#m51ef10c9e2" y="200.05405056"/>
     <use style="fill:#00bfbf;stroke:#00bfbf;stroke-linecap:butt;stroke-width:0.5;" x="486.8251875" xlink:href="#m51ef10c9e2" y="234.29570976"/>
     <use style="fill:#00bfbf;stroke:#00bfbf;stroke-linecap:butt;stroke-width:0.5;" x="564.2476875" xlink:href="#m51ef10c9e2" y="252.1421784"/>
     <use style="fill:#00bfbf;stroke:#00bfbf;stroke-linecap:butt;stroke-width:0.5;" x="641.6701875" xlink:href="#m51ef10c9e2" y="281.73888288"/>
     <use style="fill:#00bfbf;stroke:#00bfbf;stroke-linecap:butt;stroke-width:0.5;" x="719.0926875" xlink:href="#m51ef10c9e2" y="307.1071584"/>
     <use style="fill:#00bfbf;stroke:#00bfbf;stroke-linecap:butt;stroke-width:0.5;" x="796.5151875" xlink:href="#m51ef10c9e2" y="327.64485096"/>
     <use style="fill:#00bfbf;stroke:#00bfbf;stroke-linecap:butt;stroke-width:0.5;" x="873.9376875" xlink:href="#m51ef10c9e2" y="341.71437384"/>
    </g>
   </g>
   <g id="matplotlib.axis_1">
    <g id="xtick_1">
     <g id="line2d_9">
      <defs>
       <path d="
M0 0
L0 -4" id="m0012dd4eef" style="stroke:#000000;stroke-linecap:butt;stroke-width:0.5;"/>
      </defs>
      <g>
       <use style="stroke:#000000;stroke-linecap:butt;stroke-width:0.5;" x="159.715125" xlink:href="#m0012dd4eef" y="510.3"/>
      </g>
     </g>
     <g id="line2d_10">
      <defs>
       <path d="
M0 0
L0 4" id="m476344969c" style="stroke:#000000;stroke-linecap:butt;stroke-width:0.5;"/>
      </defs>
      <g>
       <use style="stroke:#000000;stroke-linecap:butt;stroke-width:0.5;" x="159.715125" xlink:href="#m476344969c" y="56.7"/>
      </g>
     </g>
     <g id="text_1">
      <!-- 1 -->
      <defs>
       <path d="
M12.4062 8.29688
L28.5156 8.29688
L28.5156 63.9219
L10.9844 60.4062
L10.9844 69.3906
L28.4219 72.9062
L38.2812 72.9062
L38.2812 8.29688
L54.3906 8.29688
L54.3906 0
L12.4062 0
z
" id="DejaVuSans-31"/>
      </defs>
      <g transform="translate(157.11075 523.04875)scale(0.12 -0.12)">
       <use xlink:href="#DejaVuSans-31"/>
      </g>
     </g>
    </g>
    <g id="xtick_2">
     <g id="line2d_11">
      <g>
       <use style="stroke:#000000;stroke-linecap:butt;stroke-width:0.5;" x="237.137625" xlink:href="#m0012dd4eef" y="510.3"/>
      </g>
     </g>
     <g id="line2d_12">
      <g>
       <use style="stroke:#000000;stroke-linecap:butt;stroke-width:0.5;" x="237.137625" xlink:href="#m476344969c" y="56.7"/>
      </g>
     </g>
     <g id="text_2">
      <!-- 2 -->
      <defs>
       <path d="
M19.1875 8.29688
L53.6094 8.29688
L53.6094 0
L7.32812 0
L7.32812 8.29688
Q12.9375 14.1094 22.625 23.8906
Q32.3281 33.6875 34.8125 36.5312
Q39.5469 41.8438 41.4219 45.5312
Q43.3125 49.2188 43.3125 52.7812
Q43.3125 58.5938 39.2344 62.25
Q35.1562 65.9219 28.6094 65.9219
Q23.9688 65.9219 18.8125 64.3125
Q13.6719 62.7031 7.8125 59.4219
L7.8125 69.3906
Q13.7656 71.7812 18.9375 73
Q24.125 74.2188 28.4219 74.2188
Q39.75 74.2188 46.4844 68.5469
Q53.2188 62.8906 53.2188 53.4219
Q53.2188 48.9219 51.5312 44.8906
Q49.8594 40.875 45.4062 35.4062
Q44.1875 33.9844 37.6406 27.2188
Q31.1094 20.4531 19.1875 8.29688" id="DejaVuSans-32"/>
      </defs>
      <g transform="translate(234.36075 523.20625)scale(0.12 -0.12)">
       <use xlink:href="#DejaVuSans-32"/>
      </g>
     </g>
    </g>
    <g id="xtick_3">
     <g id="line2d_13">
      <g>
       <use style="stroke:#000000;stroke-linecap:butt;stroke-width:0.5;" x="314.560125" xlink:href="#m0012dd4eef" y="510.3"/>
      </g>
     </g>
     <g id="line2d_14">
      <g>
       <use style="stroke:#000000;stroke-linecap:butt;stroke-width:0.5;" x="314.560125" xlink:href="#m476344969c" y="56.7"/>
      </g>
     </g>
     <g id="text_3">
      <!-- 3 -->
      <defs>
       <path d="
M40.5781 39.3125
Q47.6562 37.7969 51.625 33
Q55.6094 28.2188 55.6094 21.1875
Q55.6094 10.4062 48.1875 4.48438
Q40.7656 -1.42188 27.0938 -1.42188
Q22.5156 -1.42188 17.6562 -0.515625
Q12.7969 0.390625 7.625 2.20312
L7.625 11.7188
Q11.7188 9.32812 16.5938 8.10938
Q21.4844 6.89062 26.8125 6.89062
Q36.0781 6.89062 40.9375 10.5469
Q45.7969 14.2031 45.7969 21.1875
Q45.7969 27.6406 41.2812 31.2656
Q36.7656 34.9062 28.7188 34.9062
L20.2188 34.9062
L20.2188 43.0156
L29.1094 43.0156
Q36.375 43.0156 40.2344 45.9219
Q44.0938 48.8281 44.0938 54.2969
Q44.0938 59.9062 40.1094 62.9062
Q36.1406 65.9219 28.7188 65.9219
Q24.6562 65.9219 20.0156 65.0312
Q15.375 64.1562 9.8125 62.3125
L9.8125 71.0938
Q15.4375 72.6562 20.3438 73.4375
Q25.25 74.2188 29.5938 74.2188
Q40.8281 74.2188 47.3594 69.1094
Q53.9062 64.0156 53.9062 55.3281
Q53.9062 49.2656 50.4375 45.0938
Q46.9688 40.9219 40.5781 39.3125" id="DejaVuSans-33"/>
      </defs>
      <g transform="translate(311.6810625 523.20625)scale(0.12 -0.12)">
       <use xlink:href="#DejaVuSans-33"/>
      </g>
     </g>
    </g>
    <g id="xtick_4">
     <g id="line2d_15">
      <g>
       <use style="stroke:#000000;stroke-linecap:butt;stroke-width:0.5;" x="391.982625" xlink:href="#m0012dd4eef" y="510.3"/>
      </g>
     </g>
     <g id="line2d_16">
      <g>
       <use style="stroke:#000000;stroke-linecap:butt;stroke-width:0.5;" x="391.982625" xlink:href="#m476344969c" y="56.7"/>
      </g>
     </g>
     <g id="text_4">
      <!-- 4 -->
      <defs>
       <path d="
M37.7969 64.3125
L12.8906 25.3906
L37.7969 25.3906
z

M35.2031 72.9062
L47.6094 72.9062
L47.6094 25.3906
L58.0156 25.3906
L58.0156 17.1875
L47.6094 17.1875
L47.6094 0
L37.7969 0
L37.7969 17.1875
L4.89062 17.1875
L4.89062 26.7031
z
" id="DejaVuSans-34"/>
      </defs>
      <g transform="translate(388.795125 523.04875)scale(0.12 -0.12)">
       <use xlink:href="#DejaVuSans-34"/>
      </g>
     </g>
    </g>
    <g id="xtick_5">
     <g id="line2d_17">
      <g>
       <use style="stroke:#000000;stroke-linecap:butt;stroke-width:0.5;" x="469.405125" xlink:href="#m0012dd4eef" y="510.3"/>
      </g>
     </g>
     <g id="line2d_18">
      <g>
       <use style="stroke:#000000;stroke-linecap:butt;stroke-width:0.5;" x="469.405125" xlink:href="#m476344969c" y="56.7"/>
      </g>
     </g>
     <g id="text_5">
      <!-- 5 -->
      <defs>
       <path d="
M10.7969 72.9062
L49.5156 72.9062
L49.5156 64.5938
L19.8281 64.5938
L19.8281 46.7344
Q21.9688 47.4688 24.1094 47.8281
Q26.2656 48.1875 28.4219 48.1875
Q40.625 48.1875 47.75 41.5
Q54.8906 34.8125 54.8906 23.3906
Q54.8906 11.625 47.5625 5.09375
Q40.2344 -1.42188 26.9062 -1.42188
Q22.3125 -1.42188 17.5469 -0.640625
Q12.7969 0.140625 7.71875 1.70312
L7.71875 11.625
Q12.1094 9.23438 16.7969 8.0625
Q21.4844 6.89062 26.7031 6.89062
Q35.1562 6.89062 40.0781 11.3281
Q45.0156 15.7656 45.0156 23.3906
Q45.0156 31 40.0781 35.4375
Q35.1562 39.8906 26.7031 39.8906
Q22.75 39.8906 18.8125 39.0156
Q14.8906 38.1406 10.7969 36.2812
z
" id="DejaVuSans-35"/>
      </defs>
      <g transform="translate(466.5748125 523.04875)scale(0.12 -0.12)">
       <use xlink:href="#DejaVuSans-35"/>
      </g>
     </g>
    </g>
    <g id="xtick_6">
     <g id="line2d_19">
      <g>
       <use style="stroke:#000000;stroke-linecap:butt;stroke-width:0.5;" x="546.827625" xlink:href="#m0012dd4eef" y="510.3"/>
      </g>
     </g>
     <g id="line2d_20">
      <g>
       <use style="stroke:#000000;stroke-linecap:butt;stroke-width:0.5;" x="546.827625" xlink:href="#m476344969c" y="56.7"/>
      </g>
     </g>
     <g id="text_6">
      <!-- 6 -->
      <defs>
       <path d="
M33.0156 40.375
Q26.375 40.375 22.4844 35.8281
Q18.6094 31.2969 18.6094 23.3906
Q18.6094 15.5312 22.4844 10.9531
Q26.375 6.39062 33.0156 6.39062
Q39.6562 6.39062 43.5312 10.9531
Q47.4062 15.5312 47.4062 23.3906
Q47.4062 31.2969 43.5312 35.8281
Q39.6562 40.375 33.0156 40.375
M52.5938 71.2969
L52.5938 62.3125
Q48.875 64.0625 45.0938 64.9844
Q41.3125 65.9219 37.5938 65.9219
Q27.8281 65.9219 22.6719 59.3281
Q17.5312 52.7344 16.7969 39.4062
Q19.6719 43.6562 24.0156 45.9219
Q28.375 48.1875 33.5938 48.1875
Q44.5781 48.1875 50.9531 41.5156
Q57.3281 34.8594 57.3281 23.3906
Q57.3281 12.1562 50.6875 5.35938
Q44.0469 -1.42188 33.0156 -1.42188
Q20.3594 -1.42188 13.6719 8.26562
Q6.98438 17.9688 6.98438 36.375
Q6.98438 53.6562 15.1875 63.9375
Q23.3906 74.2188 37.2031 74.2188
Q40.9219 74.2188 44.7031 73.4844
Q48.4844 72.75 52.5938 71.2969" id="DejaVuSans-36"/>
      </defs>
      <g transform="translate(543.807 523.20625)scale(0.12 -0.12)">
       <use xlink:href="#DejaVuSans-36"/>
      </g>
     </g>
    </g>
    <g id="xtick_7">
     <g id="line2d_21">
      <g>
       <use style="stroke:#000000;stroke-linecap:butt;stroke-width:0.5;" x="624.250125" xlink:href="#m0012dd4eef" y="510.3"/>
      </g>
     </g>
     <g id="line2d_22">
      <g>
       <use style="stroke:#000000;stroke-linecap:butt;stroke-width:0.5;" x="624.250125" xlink:href="#m476344969c" y="56.7"/>
      </g>
     </g>
     <g id="text_7">
      <!-- 7 -->
      <defs>
       <path d="
M8.20312 72.9062
L55.0781 72.9062
L55.0781 68.7031
L28.6094 0
L18.3125 0
L43.2188 64.5938
L8.20312 64.5938
z
" id="DejaVuSans-37"/>
      </defs>
      <g transform="translate(621.437625 523.04875)scale(0.12 -0.12)">
       <use xlink:href="#DejaVuSans-37"/>
      </g>
     </g>
    </g>
    <g id="xtick_8">
     <g id="line2d_23">
      <g>
       <use style="stroke:#000000;stroke-linecap:butt;stroke-width:0.5;" x="701.672625" xlink:href="#m0012dd4eef" y="510.3"/>
      </g>
     </g>
     <g id="line2d_24">
      <g>
       <use style="stroke:#000000;stroke-linecap:butt;stroke-width:0.5;" x="701.672625" xlink:href="#m476344969c" y="56.7"/>
      </g>
     </g>
     <g id="text_8">
      <!-- 8 -->
      <defs>
       <path d="
M31.7812 34.625
Q24.75 34.625 20.7188 30.8594
Q16.7031 27.0938 16.7031 20.5156
Q16.7031 13.9219 20.7188 10.1562
Q24.75 6.39062 31.7812 6.39062
Q38.8125 6.39062 42.8594 10.1719
Q46.9219 13.9688 46.9219 20.5156
Q46.9219 27.0938 42.8906 30.8594
Q38.875 34.625 31.7812 34.625
M21.9219 38.8125
Q15.5781 40.375 12.0312 44.7188
Q8.5 49.0781 8.5 55.3281
Q8.5 64.0625 14.7188 69.1406
Q20.9531 74.2188 31.7812 74.2188
Q42.6719 74.2188 48.875 69.1406
Q55.0781 64.0625 55.0781 55.3281
Q55.0781 49.0781 51.5312 44.7188
Q48 40.375 41.7031 38.8125
Q48.8281 37.1562 52.7969 32.3125
Q56.7812 27.4844 56.7812 20.5156
Q56.7812 9.90625 50.3125 4.23438
Q43.8438 -1.42188 31.7812 -1.42188
Q19.7344 -1.42188 13.25 4.23438
Q6.78125 9.90625 6.78125 20.5156
Q6.78125 27.4844 10.7812 32.3125
Q14.7969 37.1562 21.9219 38.8125
M18.3125 54.3906
Q18.3125 48.7344 21.8438 45.5625
Q25.3906 42.3906 31.7812 42.3906
Q38.1406 42.3906 41.7188 45.5625
Q45.3125 48.7344 45.3125 54.3906
Q45.3125 60.0625 41.7188 63.2344
Q38.1406 66.4062 31.7812 66.4062
Q25.3906 66.4062 21.8438 63.2344
Q18.3125 60.0625 18.3125 54.3906" id="DejaVuSans-38"/>
      </defs>
      <g transform="translate(698.672625 523.20625)scale(0.12 -0.12)">
       <use xlink:href="#DejaVuSans-38"/>
      </g>
     </g>
    </g>
    <g id="xtick_9">
     <g id="line2d_25">
      <g>
       <use style="stroke:#000000;stroke-linecap:butt;stroke-width:0.5;" x="779.095125" xlink:href="#m0012dd4eef" y="510.3"/>
      </g>
     </g>
     <g id="line2d_26">
      <g>
       <use style="stroke:#000000;stroke-linecap:butt;stroke-width:0.5;" x="779.095125" xlink:href="#m476344969c" y="56.7"/>
      </g>
     </g>
     <g id="text_9">
      <!-- 9 -->
      <defs>
       <path d="
M10.9844 1.51562
L10.9844 10.5
Q14.7031 8.73438 18.5 7.8125
Q22.3125 6.89062 25.9844 6.89062
Q35.75 6.89062 40.8906 13.4531
Q46.0469 20.0156 46.7812 33.4062
Q43.9531 29.2031 39.5938 26.9531
Q35.25 24.7031 29.9844 24.7031
Q19.0469 24.7031 12.6719 31.3125
Q6.29688 37.9375 6.29688 49.4219
Q6.29688 60.6406 12.9375 67.4219
Q19.5781 74.2188 30.6094 74.2188
Q43.2656 74.2188 49.9219 64.5156
Q56.5938 54.8281 56.5938 36.375
Q56.5938 19.1406 48.4062 8.85938
Q40.2344 -1.42188 26.4219 -1.42188
Q22.7031 -1.42188 18.8906 -0.6875
Q15.0938 0.046875 10.9844 1.51562
M30.6094 32.4219
Q37.25 32.4219 41.125 36.9531
Q45.0156 41.5 45.0156 49.4219
Q45.0156 57.2812 41.125 61.8438
Q37.25 66.4062 30.6094 66.4062
Q23.9688 66.4062 20.0938 61.8438
Q16.2188 57.2812 16.2188 49.4219
Q16.2188 41.5 20.0938 36.9531
Q23.9688 32.4219 30.6094 32.4219" id="DejaVuSans-39"/>
      </defs>
      <g transform="translate(776.0773125 523.20625)scale(0.12 -0.12)">
       <use xlink:href="#DejaVuSans-39"/>
      </g>
     </g>
    </g>
    <g id="xtick_10">
     <g id="line2d_27">
      <g>
       <use style="stroke:#000000;stroke-linecap:butt;stroke-width:0.5;" x="856.517625" xlink:href="#m0012dd4eef" y="510.3"/>
      </g>
     </g>
     <g id="line2d_28">
      <g>
       <use style="stroke:#000000;stroke-linecap:butt;stroke-width:0.5;" x="856.517625" xlink:href="#m476344969c" y="56.7"/>
      </g>
     </g>
     <g id="text_10">
      <!-- 10 -->
      <defs>
       <path d="
M31.7812 66.4062
Q24.1719 66.4062 20.3281 58.9062
Q16.5 51.4219 16.5 36.375
Q16.5 21.3906 20.3281 13.8906
Q24.1719 6.39062 31.7812 6.39062
Q39.4531 6.39062 43.2812 13.8906
Q47.125 21.3906 47.125 36.375
Q47.125 51.4219 43.2812 58.9062
Q39.4531 66.4062 31.7812 66.4062
M31.7812 74.2188
Q44.0469 74.2188 50.5156 64.5156
Q56.9844 54.8281 56.9844 36.375
Q56.9844 17.9688 50.5156 8.26562
Q44.0469 -1.42188 31.7812 -1.42188
Q19.5312 -1.42188 13.0625 8.26562
Q6.59375 17.9688 6.59375 36.375
Q6.59375 54.8281 13.0625 64.5156
Q19.5312 74.2188 31.7812 74.2188" id="DejaVuSans-30"/>
      </defs>
      <g transform="translate(849.940125 523.20625)scale(0.12 -0.12)">
       <use xlink:href="#DejaVuSans-31"/>
       <use x="63.623046875" xlink:href="#DejaVuSans-30"/>
      </g>
     </g>
    </g>
    <g id="text_11">
     <!-- iteration -->
     <defs>
      <path d="
M30.6094 48.3906
Q23.3906 48.3906 19.1875 42.75
Q14.9844 37.1094 14.9844 27.2969
Q14.9844 17.4844 19.1562 11.8438
Q23.3438 6.20312 30.6094 6.20312
Q37.7969 6.20312 41.9844 11.8594
Q46.1875 17.5312 46.1875 27.2969
Q46.1875 37.0156 41.9844 42.7031
Q37.7969 48.3906 30.6094 48.3906
M30.6094 56
Q42.3281 56 49.0156 48.375
Q55.7188 40.7656 55.7188 27.2969
Q55.7188 13.875 49.0156 6.21875
Q42.3281 -1.42188 30.6094 -1.42188
Q18.8438 -1.42188 12.1719 6.21875
Q5.51562 13.875 5.51562 27.2969
Q5.51562 40.7656 12.1719 48.375
Q18.8438 56 30.6094 56" id="DejaVuSans-6f"/>
      <path d="
M54.8906 33.0156
L54.8906 0
L45.9062 0
L45.9062 32.7188
Q45.9062 40.4844 42.875 44.3281
Q39.8438 48.1875 33.7969 48.1875
Q26.5156 48.1875 22.3125 43.5469
Q18.1094 38.9219 18.1094 30.9062
L18.1094 0
L9.07812 0
L9.07812 54.6875
L18.1094 54.6875
L18.1094 46.1875
Q21.3438 51.125 25.7031 53.5625
Q30.0781 56 35.7969 56
Q45.2188 56 50.0469 50.1719
Q54.8906 44.3438 54.8906 33.0156" id="DejaVuSans-6e"/>
      <path d="
M34.2812 27.4844
Q23.3906 27.4844 19.1875 25
Q14.9844 22.5156 14.9844 16.5
Q14.9844 11.7188 18.1406 8.90625
Q21.2969 6.10938 26.7031 6.10938
Q34.1875 6.10938 38.7031 11.4062
Q43.2188 16.7031 43.2188 25.4844
L43.2188 27.4844
z

M52.2031 31.2031
L52.2031 0
L43.2188 0
L43.2188 8.29688
Q40.1406 3.32812 35.5469 0.953125
Q30.9531 -1.42188 24.3125 -1.42188
Q15.9219 -1.42188 10.9531 3.29688
Q6 8.01562 6 15.9219
Q6 25.1406 12.1719 29.8281
Q18.3594 34.5156 30.6094 34.5156
L43.2188 34.5156
L43.2188 35.4062
Q43.2188 41.6094 39.1406 45
Q35.0625 48.3906 27.6875 48.3906
Q23 48.3906 18.5469 47.2656
Q14.1094 46.1406 10.0156 43.8906
L10.0156 52.2031
Q14.9375 54.1094 19.5781 55.0469
Q24.2188 56 28.6094 56
Q40.4844 56 46.3438 49.8438
Q52.2031 43.7031 52.2031 31.2031" id="DejaVuSans-61"/>
      <path d="
M9.42188 54.6875
L18.4062 54.6875
L18.4062 0
L9.42188 0
z

M9.42188 75.9844
L18.4062 75.9844
L18.4062 64.5938
L9.42188 64.5938
z
" id="DejaVuSans-69"/>
      <path d="
M18.3125 70.2188
L18.3125 54.6875
L36.8125 54.6875
L36.8125 47.7031
L18.3125 47.7031
L18.3125 18.0156
Q18.3125 11.3281 20.1406 9.42188
Q21.9688 7.51562 27.5938 7.51562
L36.8125 7.51562
L36.8125 0
L27.5938 0
Q17.1875 0 13.2344 3.875
Q9.28125 7.76562 9.28125 18.0156
L9.28125 47.7031
L2.6875 47.7031
L2.6875 54.6875
L9.28125 54.6875
L9.28125 70.2188
z
" id="DejaVuSans-74"/>
      <path d="
M56.2031 29.5938
L56.2031 25.2031
L14.8906 25.2031
Q15.4844 15.9219 20.4844 11.0625
Q25.4844 6.20312 34.4219 6.20312
Q39.5938 6.20312 44.4531 7.46875
Q49.3125 8.73438 54.1094 11.2812
L54.1094 2.78125
Q49.2656 0.734375 44.1875 -0.34375
Q39.1094 -1.42188 33.8906 -1.42188
Q20.7969 -1.42188 13.1562 6.1875
Q5.51562 13.8125 5.51562 26.8125
Q5.51562 40.2344 12.7656 48.1094
Q20.0156 56 32.3281 56
Q43.3594 56 49.7812 48.8906
Q56.2031 41.7969 56.2031 29.5938
M47.2188 32.2344
Q47.125 39.5938 43.0938 43.9844
Q39.0625 48.3906 32.4219 48.3906
Q24.9062 48.3906 20.3906 44.1406
Q15.875 39.8906 15.1875 32.1719
z
" id="DejaVuSans-65"/>
      <path d="
M41.1094 46.2969
Q39.5938 47.1719 37.8125 47.5781
Q36.0312 48 33.8906 48
Q26.2656 48 22.1875 43.0469
Q18.1094 38.0938 18.1094 28.8125
L18.1094 0
L9.07812 0
L9.07812 54.6875
L18.1094 54.6875
L18.1094 46.1875
Q20.9531 51.1719 25.4844 53.5781
Q30.0312 56 36.5312 56
Q37.4531 56 38.5781 55.875
Q39.7031 55.7656 41.0625 55.5156
z
" id="DejaVuSans-72"/>
     </defs>
     <g transform="translate(487.7146875 537.495)scale(0.12 -0.12)">
      <use xlink:href="#DejaVuSans-69"/>
      <use x="27.783203125" xlink:href="#DejaVuSans-74"/>
      <use x="66.9921875" xlink:href="#DejaVuSans-65"/>
      <use x="128.515625" xlink:href="#DejaVuSans-72"/>
      <use x="169.62890625" xlink:href="#DejaVuSans-61"/>
      <use x="230.908203125" xlink:href="#DejaVuSans-74"/>
      <use x="270.1171875" xlink:href="#DejaVuSans-69"/>
      <use x="297.900390625" xlink:href="#DejaVuSans-6f"/>
      <use x="359.08203125" xlink:href="#DejaVuSans-6e"/>
     </g>
    </g>
   </g>
   <g id="matplotlib.axis_2">
    <g id="ytick_1">
     <g id="line2d_29">
      <defs>
       <path d="
M0 0
L4 0" id="me8a85f7bf6" style="stroke:#000000;stroke-linecap:butt;stroke-width:0.5;"/>
      </defs>
      <g>
       <use style="stroke:#000000;stroke-linecap:butt;stroke-width:0.5;" x="124.875" xlink:href="#me8a85f7bf6" y="510.3"/>
      </g>
     </g>
     <g id="line2d_30">
      <defs>
       <path d="
M0 0
L-4 0" id="m1a32005dea" style="stroke:#000000;stroke-linecap:butt;stroke-width:0.5;"/>
      </defs>
      <g>
       <use style="stroke:#000000;stroke-linecap:butt;stroke-width:0.5;" x="899.1" xlink:href="#m1a32005dea" y="510.3"/>
      </g>
     </g>
     <g id="text_12">
      <!-- 0 -->
      <g transform="translate(114.828125 514.6678125)scale(0.12 -0.12)">
       <use xlink:href="#DejaVuSans-30"/>
      </g>
     </g>
    </g>
    <g id="ytick_2">
     <g id="line2d_31">
      <g>
       <use style="stroke:#000000;stroke-linecap:butt;stroke-width:0.5;" x="124.875" xlink:href="#me8a85f7bf6" y="434.7"/>
      </g>
     </g>
     <g id="line2d_32">
      <g>
       <use style="stroke:#000000;stroke-linecap:butt;stroke-width:0.5;" x="899.1" xlink:href="#m1a32005dea" y="434.7"/>
      </g>
     </g>
     <g id="text_13">
      <!-- 50 -->
      <g transform="translate(107.328125 439.0678125)scale(0.12 -0.12)">
       <use xlink:href="#DejaVuSans-35"/>
       <use x="63.623046875" xlink:href="#DejaVuSans-30"/>
      </g>
     </g>
    </g>
    <g id="ytick_3">
     <g id="line2d_33">
      <g>
       <use style="stroke:#000000;stroke-linecap:butt;stroke-width:0.5;" x="124.875" xlink:href="#me8a85f7bf6" y="359.1"/>
      </g>
     </g>
     <g id="line2d_34">
      <g>
       <use style="stroke:#000000;stroke-linecap:butt;stroke-width:0.5;" x="899.1" xlink:href="#m1a32005dea" y="359.1"/>
      </g>
     </g>
     <g id="text_14">
      <!-- 100 -->
      <g transform="translate(100.085 363.4678125)scale(0.12 -0.12)">
       <use xlink:href="#DejaVuSans-31"/>
       <use x="63.623046875" xlink:href="#DejaVuSans-30"/>
       <use x="127.24609375" xlink:href="#DejaVuSans-30"/>
      </g>
     </g>
    </g>
    <g id="ytick_4">
     <g id="line2d_35">
      <g>
       <use style="stroke:#000000;stroke-linecap:butt;stroke-width:0.5;" x="124.875" xlink:href="#me8a85f7bf6" y="283.5"/>
      </g>
     </g>
     <g id="line2d_36">
      <g>
       <use style="stroke:#000000;stroke-linecap:butt;stroke-width:0.5;" x="899.1" xlink:href="#m1a32005dea" y="283.5"/>
      </g>
     </g>
     <g id="text_15">
      <!-- 150 -->
      <g transform="translate(100.085 287.8678125)scale(0.12 -0.12)">
       <use xlink:href="#DejaVuSans-31"/>
       <use x="63.623046875" xlink:href="#DejaVuSans-35"/>
       <use x="127.24609375" xlink:href="#DejaVuSans-30"/>
      </g>
     </g>
    </g>
    <g id="ytick_5">
     <g id="line2d_37">
      <g>
       <use style="stroke:#000000;stroke-linecap:butt;stroke-width:0.5;" x="124.875" xlink:href="#me8a85f7bf6" y="207.9"/>
      </g>
     </g>
     <g id="line2d_38">
      <g>
       <use style="stroke:#000000;stroke-linecap:butt;stroke-width:0.5;" x="899.1" xlink:href="#m1a32005dea" y="207.9"/>
      </g>
     </g>
     <g id="text_16">
      <!-- 200 -->
      <g transform="translate(99.64625 212.2678125)scale(0.12 -0.12)">
       <use xlink:href="#DejaVuSans-32"/>
       <use x="63.623046875" xlink:href="#DejaVuSans-30"/>
       <use x="127.24609375" xlink:href="#DejaVuSans-30"/>
      </g>
     </g>
    </g>
    <g id="ytick_6">
     <g id="line2d_39">
      <g>
       <use style="stroke:#000000;stroke-linecap:butt;stroke-width:0.5;" x="124.875" xlink:href="#me8a85f7bf6" y="132.3"/>
      </g>
     </g>
     <g id="line2d_40">
      <g>
       <use style="stroke:#000000;stroke-linecap:butt;stroke-width:0.5;" x="899.1" xlink:href="#m1a32005dea" y="132.3"/>
      </g>
     </g>
     <g id="text_17">
      <!-- 250 -->
      <g transform="translate(99.64625 136.6678125)scale(0.12 -0.12)">
       <use xlink:href="#DejaVuSans-32"/>
       <use x="63.623046875" xlink:href="#DejaVuSans-35"/>
       <use x="127.24609375" xlink:href="#DejaVuSans-30"/>
      </g>
     </g>
    </g>
    <g id="ytick_7">
     <g id="line2d_41">
      <g>
       <use style="stroke:#000000;stroke-linecap:butt;stroke-width:0.5;" x="124.875" xlink:href="#me8a85f7bf6" y="56.7"/>
      </g>
     </g>
     <g id="line2d_42">
      <g>
       <use style="stroke:#000000;stroke-linecap:butt;stroke-width:0.5;" x="899.1" xlink:href="#m1a32005dea" y="56.7"/>
      </g>
     </g>
     <g id="text_18">
      <!-- 300 -->
      <g transform="translate(99.681875 61.0678125)scale(0.12 -0.12)">
       <use xlink:href="#DejaVuSans-33"/>
       <use x="63.623046875" xlink:href="#DejaVuSans-30"/>
       <use x="127.24609375" xlink:href="#DejaVuSans-30"/>
      </g>
     </g>
    </g>
    <g id="text_19">
     <!-- elapsed time (s) -->
     <defs>
      <path d="
M52 44.1875
Q55.375 50.25 60.0625 53.125
Q64.75 56 71.0938 56
Q79.6406 56 84.2812 50.0156
Q88.9219 44.0469 88.9219 33.0156
L88.9219 0
L79.8906 0
L79.8906 32.7188
Q79.8906 40.5781 77.0938 44.375
Q74.3125 48.1875 68.6094 48.1875
Q61.625 48.1875 57.5625 43.5469
Q53.5156 38.9219 53.5156 30.9062
L53.5156 0
L44.4844 0
L44.4844 32.7188
Q44.4844 40.625 41.7031 44.4062
Q38.9219 48.1875 33.1094 48.1875
Q26.2188 48.1875 22.1562 43.5312
Q18.1094 38.875 18.1094 30.9062
L18.1094 0
L9.07812 0
L9.07812 54.6875
L18.1094 54.6875
L18.1094 46.1875
Q21.1875 51.2188 25.4844 53.6094
Q29.7812 56 35.6875 56
Q41.6562 56 45.8281 52.9688
Q50 49.9531 52 44.1875" id="DejaVuSans-6d"/>
      <path d="
M9.42188 75.9844
L18.4062 75.9844
L18.4062 0
L9.42188 0
z
" id="DejaVuSans-6c"/>
      <path id="DejaVuSans-20"/>
      <path d="
M45.4062 46.3906
L45.4062 75.9844
L54.3906 75.9844
L54.3906 0
L45.4062 0
L45.4062 8.20312
Q42.5781 3.32812 38.25 0.953125
Q33.9375 -1.42188 27.875 -1.42188
Q17.9688 -1.42188 11.7344 6.48438
Q5.51562 14.4062 5.51562 27.2969
Q5.51562 40.1875 11.7344 48.0938
Q17.9688 56 27.875 56
Q33.9375 56 38.25 53.625
Q42.5781 51.2656 45.4062 46.3906
M14.7969 27.2969
Q14.7969 17.3906 18.875 11.75
Q22.9531 6.10938 30.0781 6.10938
Q37.2031 6.10938 41.2969 11.75
Q45.4062 17.3906 45.4062 27.2969
Q45.4062 37.2031 41.2969 42.8438
Q37.2031 48.4844 30.0781 48.4844
Q22.9531 48.4844 18.875 42.8438
Q14.7969 37.2031 14.7969 27.2969" id="DejaVuSans-64"/>
      <path d="
M8.01562 75.875
L15.8281 75.875
Q23.1406 64.3594 26.7812 53.3125
Q30.4219 42.2812 30.4219 31.3906
Q30.4219 20.4531 26.7812 9.375
Q23.1406 -1.70312 15.8281 -13.1875
L8.01562 -13.1875
Q14.5 -2 17.7031 9.0625
Q20.9062 20.125 20.9062 31.3906
Q20.9062 42.6719 17.7031 53.6562
Q14.5 64.6562 8.01562 75.875" id="DejaVuSans-29"/>
      <path d="
M18.1094 8.20312
L18.1094 -20.7969
L9.07812 -20.7969
L9.07812 54.6875
L18.1094 54.6875
L18.1094 46.3906
Q20.9531 51.2656 25.2656 53.625
Q29.5938 56 35.5938 56
Q45.5625 56 51.7812 48.0938
Q58.0156 40.1875 58.0156 27.2969
Q58.0156 14.4062 51.7812 6.48438
Q45.5625 -1.42188 35.5938 -1.42188
Q29.5938 -1.42188 25.2656 0.953125
Q20.9531 3.32812 18.1094 8.20312
M48.6875 27.2969
Q48.6875 37.2031 44.6094 42.8438
Q40.5312 48.4844 33.4062 48.4844
Q26.2656 48.4844 22.1875 42.8438
Q18.1094 37.2031 18.1094 27.2969
Q18.1094 17.3906 22.1875 11.75
Q26.2656 6.10938 33.4062 6.10938
Q40.5312 6.10938 44.6094 11.75
Q48.6875 17.3906 48.6875 27.2969" id="DejaVuSans-70"/>
      <path d="
M44.2812 53.0781
L44.2812 44.5781
Q40.4844 46.5312 36.375 47.5
Q32.2812 48.4844 27.875 48.4844
Q21.1875 48.4844 17.8438 46.4375
Q14.5 44.3906 14.5 40.2812
Q14.5 37.1562 16.8906 35.375
Q19.2812 33.5938 26.5156 31.9844
L29.5938 31.2969
Q39.1562 29.25 43.1875 25.5156
Q47.2188 21.7812 47.2188 15.0938
Q47.2188 7.46875 41.1875 3.01562
Q35.1562 -1.42188 24.6094 -1.42188
Q20.2188 -1.42188 15.4531 -0.5625
Q10.6875 0.296875 5.42188 2
L5.42188 11.2812
Q10.4062 8.6875 15.2344 7.39062
Q20.0625 6.10938 24.8125 6.10938
Q31.1562 6.10938 34.5625 8.28125
Q37.9844 10.4531 37.9844 14.4062
Q37.9844 18.0625 35.5156 20.0156
Q33.0625 21.9688 24.7031 23.7812
L21.5781 24.5156
Q13.2344 26.2656 9.51562 29.9062
Q5.8125 33.5469 5.8125 39.8906
Q5.8125 47.6094 11.2812 51.7969
Q16.75 56 26.8125 56
Q31.7812 56 36.1719 55.2656
Q40.5781 54.5469 44.2812 53.0781" id="DejaVuSans-73"/>
      <path d="
M31 75.875
Q24.4688 64.6562 21.2812 53.6562
Q18.1094 42.6719 18.1094 31.3906
Q18.1094 20.125 21.3125 9.0625
Q24.5156 -2 31 -13.1875
L23.1875 -13.1875
Q15.875 -1.70312 12.2344 9.375
Q8.59375 20.4531 8.59375 31.3906
Q8.59375 42.2812 12.2031 53.3125
Q15.8281 64.3594 23.1875 75.875
z
" id="DejaVuSans-28"/>
     </defs>
     <g transform="translate(94.64625 329.1365625)rotate(-90.0)scale(0.12 -0.12)">
      <use xlink:href="#DejaVuSans-65"/>
      <use x="61.5234375" xlink:href="#DejaVuSans-6c"/>
      <use x="89.306640625" xlink:href="#DejaVuSans-61"/>
      <use x="150.5859375" xlink:href="#DejaVuSans-70"/>
      <use x="214.0625" xlink:href="#DejaVuSans-73"/>
      <use x="266.162109375" xlink:href="#DejaVuSans-65"/>
      <use x="327.685546875" xlink:href="#DejaVuSans-64"/>
      <use x="391.162109375" xlink:href="#DejaVuSans-20"/>
      <use x="422.94921875" xlink:href="#DejaVuSans-74"/>
      <use x="462.158203125" xlink:href="#DejaVuSans-69"/>
      <use x="489.94140625" xlink:href="#DejaVuSans-6d"/>
      <use x="587.353515625" xlink:href="#DejaVuSans-65"/>
      <use x="648.876953125" xlink:href="#DejaVuSans-20"/>
      <use x="680.6640625" xlink:href="#DejaVuSans-28"/>
      <use x="719.677734375" xlink:href="#DejaVuSans-73"/>
      <use x="771.77734375" xlink:href="#DejaVuSans-29"/>
     </g>
    </g>
   </g>
   <g id="patch_43">
    <path d="
M124.875 56.7
L899.1 56.7" style="fill:none;stroke:#000000;"/>
   </g>
   <g id="patch_44">
    <path d="
M899.1 510.3
L899.1 56.7" style="fill:none;stroke:#000000;"/>
   </g>
   <g id="patch_45">
    <path d="
M124.875 510.3
L899.1 510.3" style="fill:none;stroke:#000000;"/>
   </g>
   <g id="patch_46">
    <path d="
M124.875 510.3
L124.875 56.7" style="fill:none;stroke:#000000;"/>
   </g>
   <g id="text_20">
    <!-- Comm/Computation time breakdown on enwiki Dataset,IB -->
    <defs>
     <path d="
M11.7188 12.4062
L22.0156 12.4062
L22.0156 4
L14.0156 -11.625
L7.71875 -11.625
L11.7188 4
z
" id="DejaVuSans-2c"/>
     <path d="
M25.3906 72.9062
L33.6875 72.9062
L8.29688 -9.28125
L0 -9.28125
z
" id="DejaVuSans-2f"/>
     <path d="
M9.07812 75.9844
L18.1094 75.9844
L18.1094 31.1094
L44.9219 54.6875
L56.3906 54.6875
L27.3906 29.1094
L57.625 0
L45.9062 0
L18.1094 26.7031
L18.1094 0
L9.07812 0
z
" id="DejaVuSans-6b"/>
     <path d="
M19.6719 64.7969
L19.6719 8.10938
L31.5938 8.10938
Q46.6875 8.10938 53.6875 14.9375
Q60.6875 21.7812 60.6875 36.5312
Q60.6875 51.1719 53.6875 57.9844
Q46.6875 64.7969 31.5938 64.7969
z

M9.8125 72.9062
L30.0781 72.9062
Q51.2656 72.9062 61.1719 64.0938
Q71.0938 55.2812 71.0938 36.5312
Q71.0938 17.6719 61.125 8.82812
Q51.1719 0 30.0781 0
L9.8125 0
z
" id="DejaVuSans-44"/>
     <path d="
M19.6719 34.8125
L19.6719 8.10938
L35.5 8.10938
Q43.4531 8.10938 47.2812 11.4062
Q51.125 14.7031 51.125 21.4844
Q51.125 28.3281 47.2812 31.5625
Q43.4531 34.8125 35.5 34.8125
z

M19.6719 64.7969
L19.6719 42.8281
L34.2812 42.8281
Q41.5 42.8281 45.0312 45.5312
Q48.5781 48.25 48.5781 53.8125
Q48.5781 59.3281 45.0312 62.0625
Q41.5 64.7969 34.2812 64.7969
z

M9.8125 72.9062
L35.0156 72.9062
Q46.2969 72.9062 52.3906 68.2188
Q58.5 63.5312 58.5 54.8906
Q58.5 48.1875 55.375 44.2344
Q52.25 40.2812 46.1875 39.3125
Q53.4688 37.75 57.5 32.7812
Q61.5312 27.8281 61.5312 20.4062
Q61.5312 10.6406 54.8906 5.3125
Q48.25 0 35.9844 0
L9.8125 0
z
" id="DejaVuSans-42"/>
     <path d="
M64.4062 67.2812
L64.4062 56.8906
Q59.4219 61.5312 53.7812 63.8125
Q48.1406 66.1094 41.7969 66.1094
Q29.2969 66.1094 22.6562 58.4688
Q16.0156 50.8281 16.0156 36.375
Q16.0156 21.9688 22.6562 14.3281
Q29.2969 6.6875 41.7969 6.6875
Q48.1406 6.6875 53.7812 8.98438
Q59.4219 11.2812 64.4062 15.9219
L64.4062 5.60938
Q59.2344 2.09375 53.4375 0.328125
Q47.6562 -1.42188 41.2188 -1.42188
Q24.6562 -1.42188 15.125 8.70312
Q5.60938 18.8438 5.60938 36.375
Q5.60938 53.9531 15.125 64.0781
Q24.6562 74.2188 41.2188 74.2188
Q47.75 74.2188 53.5312 72.4844
Q59.3281 70.75 64.4062 67.2812" id="DejaVuSans-43"/>
     <path d="
M8.5 21.5781
L8.5 54.6875
L17.4844 54.6875
L17.4844 21.9219
Q17.4844 14.1562 20.5 10.2656
Q23.5312 6.39062 29.5938 6.39062
Q36.8594 6.39062 41.0781 11.0312
Q45.3125 15.6719 45.3125 23.6875
L45.3125 54.6875
L54.2969 54.6875
L54.2969 0
L45.3125 0
L45.3125 8.40625
Q42.0469 3.42188 37.7188 1
Q33.4062 -1.42188 27.6875 -1.42188
Q18.2656 -1.42188 13.375 4.4375
Q8.5 10.2969 8.5 21.5781
M31.1094 56
z
" id="DejaVuSans-75"/>
     <path d="
M4.20312 54.6875
L13.1875 54.6875
L24.4219 12.0156
L35.5938 54.6875
L46.1875 54.6875
L57.4219 12.0156
L68.6094 54.6875
L77.5938 54.6875
L63.2812 0
L52.6875 0
L40.9219 44.8281
L29.1094 0
L18.5 0
z
" id="DejaVuSans-77"/>
     <path d="
M48.6875 27.2969
Q48.6875 37.2031 44.6094 42.8438
Q40.5312 48.4844 33.4062 48.4844
Q26.2656 48.4844 22.1875 42.8438
Q18.1094 37.2031 18.1094 27.2969
Q18.1094 17.3906 22.1875 11.75
Q26.2656 6.10938 33.4062 6.10938
Q40.5312 6.10938 44.6094 11.75
Q48.6875 17.3906 48.6875 27.2969
M18.1094 46.3906
Q20.9531 51.2656 25.2656 53.625
Q29.5938 56 35.5938 56
Q45.5625 56 51.7812 48.0938
Q58.0156 40.1875 58.0156 27.2969
Q58.0156 14.4062 51.7812 6.48438
Q45.5625 -1.42188 35.5938 -1.42188
Q29.5938 -1.42188 25.2656 0.953125
Q20.9531 3.32812 18.1094 8.20312
L18.1094 0
L9.07812 0
L9.07812 75.9844
L18.1094 75.9844
z
" id="DejaVuSans-62"/>
     <path d="
M9.8125 72.9062
L19.6719 72.9062
L19.6719 0
L9.8125 0
z
" id="DejaVuSans-49"/>
    </defs>
    <g transform="translate(302.923125 51.7)scale(0.144 -0.144)">
     <use xlink:href="#DejaVuSans-43"/>
     <use x="69.82421875" xlink:href="#DejaVuSans-6f"/>
     <use x="131.005859375" xlink:href="#DejaVuSans-6d"/>
     <use x="228.41796875" xlink:href="#DejaVuSans-6d"/>
     <use x="325.830078125" xlink:href="#DejaVuSans-2f"/>
     <use x="359.521484375" xlink:href="#DejaVuSans-43"/>
     <use x="429.345703125" xlink:href="#DejaVuSans-6f"/>
     <use x="490.52734375" xlink:href="#DejaVuSans-6d"/>
     <use x="587.939453125" xlink:href="#DejaVuSans-70"/>
     <use x="651.416015625" xlink:href="#DejaVuSans-75"/>
     <use x="714.794921875" xlink:href="#DejaVuSans-74"/>
     <use x="754.00390625" xlink:href="#DejaVuSans-61"/>
     <use x="815.283203125" xlink:href="#DejaVuSans-74"/>
     <use x="854.4921875" xlink:href="#DejaVuSans-69"/>
     <use x="882.275390625" xlink:href="#DejaVuSans-6f"/>
     <use x="943.45703125" xlink:href="#DejaVuSans-6e"/>
     <use x="1006.8359375" xlink:href="#DejaVuSans-20"/>
     <use x="1038.62304688" xlink:href="#DejaVuSans-74"/>
     <use x="1077.83203125" xlink:href="#DejaVuSans-69"/>
     <use x="1105.61523438" xlink:href="#DejaVuSans-6d"/>
     <use x="1203.02734375" xlink:href="#DejaVuSans-65"/>
     <use x="1264.55078125" xlink:href="#DejaVuSans-20"/>
     <use x="1296.33789062" xlink:href="#DejaVuSans-62"/>
     <use x="1359.81445312" xlink:href="#DejaVuSans-72"/>
     <use x="1398.67773438" xlink:href="#DejaVuSans-65"/>
     <use x="1460.20117188" xlink:href="#DejaVuSans-61"/>
     <use x="1521.48046875" xlink:href="#DejaVuSans-6b"/>
     <use x="1579.390625" xlink:href="#DejaVuSans-64"/>
     <use x="1642.8671875" xlink:href="#DejaVuSans-6f"/>
     <use x="1704.04882812" xlink:href="#DejaVuSans-77"/>
     <use x="1785.8359375" xlink:href="#DejaVuSans-6e"/>
     <use x="1849.21484375" xlink:href="#DejaVuSans-20"/>
     <use x="1881.00195312" xlink:href="#DejaVuSans-6f"/>
     <use x="1942.18359375" xlink:href="#DejaVuSans-6e"/>
     <use x="2005.5625" xlink:href="#DejaVuSans-20"/>
     <use x="2037.34960938" xlink:href="#DejaVuSans-65"/>
     <use x="2098.87304688" xlink:href="#DejaVuSans-6e"/>
     <use x="2162.25195312" xlink:href="#DejaVuSans-77"/>
     <use x="2244.0390625" xlink:href="#DejaVuSans-69"/>
     <use x="2271.82226562" xlink:href="#DejaVuSans-6b"/>
     <use x="2329.73242188" xlink:href="#DejaVuSans-69"/>
     <use x="2357.515625" xlink:href="#DejaVuSans-20"/>
     <use x="2389.30273438" xlink:href="#DejaVuSans-44"/>
     <use x="2466.3046875" xlink:href="#DejaVuSans-61"/>
     <use x="2527.58398438" xlink:href="#DejaVuSans-74"/>
     <use x="2566.79296875" xlink:href="#DejaVuSans-61"/>
     <use x="2628.07226562" xlink:href="#DejaVuSans-73"/>
     <use x="2680.171875" xlink:href="#DejaVuSans-65"/>
     <use x="2741.6953125" xlink:href="#DejaVuSans-74"/>
     <use x="2780.90429688" xlink:href="#DejaVuSans-2c"/>
     <use x="2812.69140625" xlink:href="#DejaVuSans-49"/>
     <use x="2842.18359375" xlink:href="#DejaVuSans-42"/>
    </g>
   </g>
   <g id="legend_1">
    <g id="patch_47">
     <path d="
M701.786 152.766
L891.9 152.766
L891.9 63.9
L701.786 63.9
L701.786 152.766
z
" style="fill:#ffffff;stroke:#000000;"/>
    </g>
    <g id="patch_48">
     <path d="
M707.546 80.6017
L736.346 80.6017
L736.346 70.5217
L707.546 70.5217
z
" style="fill:#bf00bf;stroke:#000000;"/>
    </g>
    <g id="text_21">
     <!-- ldalgs-opt-compute -->
     <defs>
      <path d="
M45.4062 27.9844
Q45.4062 37.75 41.375 43.1094
Q37.3594 48.4844 30.0781 48.4844
Q22.8594 48.4844 18.8281 43.1094
Q14.7969 37.75 14.7969 27.9844
Q14.7969 18.2656 18.8281 12.8906
Q22.8594 7.51562 30.0781 7.51562
Q37.3594 7.51562 41.375 12.8906
Q45.4062 18.2656 45.4062 27.9844
M54.3906 6.78125
Q54.3906 -7.17188 48.1875 -13.9844
Q42 -20.7969 29.2031 -20.7969
Q24.4688 -20.7969 20.2656 -20.0938
Q16.0625 -19.3906 12.1094 -17.9219
L12.1094 -9.1875
Q16.0625 -11.3281 19.9219 -12.3438
Q23.7812 -13.375 27.7812 -13.375
Q36.625 -13.375 41.0156 -8.76562
Q45.4062 -4.15625 45.4062 5.17188
L45.4062 9.625
Q42.625 4.78125 38.2812 2.39062
Q33.9375 0 27.875 0
Q17.8281 0 11.6719 7.65625
Q5.51562 15.3281 5.51562 27.9844
Q5.51562 40.6719 11.6719 48.3281
Q17.8281 56 27.875 56
Q33.9375 56 38.2812 53.6094
Q42.625 51.2188 45.4062 46.3906
L45.4062 54.6875
L54.3906 54.6875
z
" id="DejaVuSans-67"/>
      <path d="
M48.7812 52.5938
L48.7812 44.1875
Q44.9688 46.2969 41.1406 47.3438
Q37.3125 48.3906 33.4062 48.3906
Q24.6562 48.3906 19.8125 42.8438
Q14.9844 37.3125 14.9844 27.2969
Q14.9844 17.2812 19.8125 11.7344
Q24.6562 6.20312 33.4062 6.20312
Q37.3125 6.20312 41.1406 7.25
Q44.9688 8.29688 48.7812 10.4062
L48.7812 2.09375
Q45.0156 0.34375 40.9844 -0.53125
Q36.9688 -1.42188 32.4219 -1.42188
Q20.0625 -1.42188 12.7812 6.34375
Q5.51562 14.1094 5.51562 27.2969
Q5.51562 40.6719 12.8594 48.3281
Q20.2188 56 33.0156 56
Q37.1562 56 41.1094 55.1406
Q45.0625 54.2969 48.7812 52.5938" id="DejaVuSans-63"/>
      <path d="
M4.89062 31.3906
L31.2031 31.3906
L31.2031 23.3906
L4.89062 23.3906
z
" id="DejaVuSans-2d"/>
     </defs>
     <g transform="translate(747.86625 80.60175)scale(0.144 -0.144)">
      <use xlink:href="#DejaVuSans-6c"/>
      <use x="27.783203125" xlink:href="#DejaVuSans-64"/>
      <use x="91.259765625" xlink:href="#DejaVuSans-61"/>
      <use x="152.5390625" xlink:href="#DejaVuSans-6c"/>
      <use x="180.322265625" xlink:href="#DejaVuSans-67"/>
      <use x="243.798828125" xlink:href="#DejaVuSans-73"/>
      <use x="295.8984375" xlink:href="#DejaVuSans-2d"/>
      <use x="333.857421875" xlink:href="#DejaVuSans-6f"/>
      <use x="395.0390625" xlink:href="#DejaVuSans-70"/>
      <use x="458.515625" xlink:href="#DejaVuSans-74"/>
      <use x="497.724609375" xlink:href="#DejaVuSans-2d"/>
      <use x="533.80859375" xlink:href="#DejaVuSans-63"/>
      <use x="588.7890625" xlink:href="#DejaVuSans-6f"/>
      <use x="649.970703125" xlink:href="#DejaVuSans-6d"/>
      <use x="747.3828125" xlink:href="#DejaVuSans-70"/>
      <use x="810.859375" xlink:href="#DejaVuSans-75"/>
      <use x="874.23828125" xlink:href="#DejaVuSans-74"/>
      <use x="913.447265625" xlink:href="#DejaVuSans-65"/>
     </g>
    </g>
    <g id="patch_49">
     <path d="
M707.546 101.738
L736.346 101.738
L736.346 91.6582
L707.546 91.6582
z
" style="fill:#ff0000;stroke:#000000;"/>
    </g>
    <g id="text_22">
     <!-- ldalgs-opt-comm -->
     <g transform="translate(747.86625 101.73825)scale(0.144 -0.144)">
      <use xlink:href="#DejaVuSans-6c"/>
      <use x="27.783203125" xlink:href="#DejaVuSans-64"/>
      <use x="91.259765625" xlink:href="#DejaVuSans-61"/>
      <use x="152.5390625" xlink:href="#DejaVuSans-6c"/>
      <use x="180.322265625" xlink:href="#DejaVuSans-67"/>
      <use x="243.798828125" xlink:href="#DejaVuSans-73"/>
      <use x="295.8984375" xlink:href="#DejaVuSans-2d"/>
      <use x="333.857421875" xlink:href="#DejaVuSans-6f"/>
      <use x="395.0390625" xlink:href="#DejaVuSans-70"/>
      <use x="458.515625" xlink:href="#DejaVuSans-74"/>
      <use x="497.724609375" xlink:href="#DejaVuSans-2d"/>
      <use x="533.80859375" xlink:href="#DejaVuSans-63"/>
      <use x="588.7890625" xlink:href="#DejaVuSans-6f"/>
      <use x="649.970703125" xlink:href="#DejaVuSans-6d"/>
      <use x="747.3828125" xlink:href="#DejaVuSans-6d"/>
     </g>
    </g>
    <g id="patch_50">
     <path d="
M707.546 122.875
L736.346 122.875
L736.346 112.795
L707.546 112.795
z
" style="fill:#0000ff;stroke:#000000;"/>
    </g>
    <g id="text_23">
     <!-- ylda-compute -->
     <defs>
      <path d="
M32.1719 -5.07812
Q28.375 -14.8438 24.75 -17.8125
Q21.1406 -20.7969 15.0938 -20.7969
L7.90625 -20.7969
L7.90625 -13.2812
L13.1875 -13.2812
Q16.8906 -13.2812 18.9375 -11.5156
Q21 -9.76562 23.4844 -3.21875
L25.0938 0.875
L2.98438 54.6875
L12.5 54.6875
L29.5938 11.9219
L46.6875 54.6875
L56.2031 54.6875
z
" id="DejaVuSans-79"/>
     </defs>
     <g transform="translate(747.86625 122.87475)scale(0.144 -0.144)">
      <use xlink:href="#DejaVuSans-79"/>
      <use x="59.1796875" xlink:href="#DejaVuSans-6c"/>
      <use x="86.962890625" xlink:href="#DejaVuSans-64"/>
      <use x="150.439453125" xlink:href="#DejaVuSans-61"/>
      <use x="211.71875" xlink:href="#DejaVuSans-2d"/>
      <use x="247.802734375" xlink:href="#DejaVuSans-63"/>
      <use x="302.783203125" xlink:href="#DejaVuSans-6f"/>
      <use x="363.96484375" xlink:href="#DejaVuSans-6d"/>
      <use x="461.376953125" xlink:href="#DejaVuSans-70"/>
      <use x="524.853515625" xlink:href="#DejaVuSans-75"/>
      <use x="588.232421875" xlink:href="#DejaVuSans-74"/>
      <use x="627.44140625" xlink:href="#DejaVuSans-65"/>
     </g>
    </g>
    <g id="patch_51">
     <path d="
M707.546 144.011
L736.346 144.011
L736.346 133.931
L707.546 133.931
z
" style="fill:#008000;stroke:#000000;"/>
    </g>
    <g id="text_24">
     <!-- ylda-comm -->
     <g transform="translate(747.86625 144.01125)scale(0.144 -0.144)">
      <use xlink:href="#DejaVuSans-79"/>
      <use x="59.1796875" xlink:href="#DejaVuSans-6c"/>
      <use x="86.962890625" xlink:href="#DejaVuSans-64"/>
      <use x="150.439453125" xlink:href="#DejaVuSans-61"/>
      <use x="211.71875" xlink:href="#DejaVuSans-2d"/>
      <use x="247.802734375" xlink:href="#DejaVuSans-63"/>
      <use x="302.783203125" xlink:href="#DejaVuSans-6f"/>
      <use x="363.96484375" xlink:href="#DejaVuSans-6d"/>
      <use x="461.376953125" xlink:href="#DejaVuSans-6d"/>
     </g>
    </g>
   </g>
  </g>
 </g>
 <defs>
  <clipPath id="pf532fa5deb">
   <rect height="453.6" width="774.225" x="124.875" y="56.7"/>
  </clipPath>
 </defs>
</svg>
