<?xml version="1.0" encoding="utf-8" standalone="no"?>
<!DOCTYPE svg PUBLIC "-//W3C//DTD SVG 1.1//EN"
  "http://www.w3.org/Graphics/SVG/1.1/DTD/svg11.dtd">
<!-- Created with matplotlib (http://matplotlib.sourceforge.net/) -->
<svg height="567pt" version="1.1" viewBox="0 0 999 567" width="999pt" xmlns="http://www.w3.org/2000/svg" xmlns:xlink="http://www.w3.org/1999/xlink">
 <defs>
  <style type="text/css">
*{stroke-linecap:square;stroke-linejoin:round;}
  </style>
 </defs>
 <g id="figure_1">
  <g id="patch_1">
   <path d="
M0 567
L999 567
L999 0
L0 0
z
" style="fill:#ffffff;"/>
  </g>
  <g id="axes_1">
   <g id="patch_2">
    <path d="
M124.875 510.3
L899.1 510.3
L899.1 56.7
L124.875 56.7
z
" style="fill:#ffffff;"/>
   </g>
   <g id="line2d_1">
    <path clip-path="url(#pf532fa5deb)" d="
M131.135 304.923
L152.196 203.115
L164.113 153.682
L172.709 134.089
L180.019 123.587
L186.862 116.959
L193.403 112.383
L199.748 109.09
L205.93 106.694
L211.991 104.822
L217.995 103.371
L223.977 102.205
L229.906 101.228
L235.775 100.398
L241.695 99.7076
L247.622 99.1055
L253.476 98.6067
L259.309 98.1588
L265.175 97.759
L270.985 97.3986
L276.791 97.1084" style="fill:none;stroke:#bf00bf;"/>
    <defs>
     <path d="
M0 1.5
C0.397805 1.5 0.77937 1.34195 1.06066 1.06066
C1.34195 0.77937 1.5 0.397805 1.5 0
C1.5 -0.397805 1.34195 -0.77937 1.06066 -1.06066
C0.77937 -1.34195 0.397805 -1.5 0 -1.5
C-0.397805 -1.5 -0.77937 -1.34195 -1.06066 -1.06066
C-1.34195 -0.77937 -1.5 -0.397805 -1.5 0
C-1.5 0.397805 -1.34195 0.77937 -1.06066 1.06066
C-0.77937 1.34195 -0.397805 1.5 0 1.5
z
" id="mc0debf2262" style="stroke:#bf00bf;stroke-linecap:butt;stroke-width:0.5;"/>
    </defs>
    <g clip-path="url(#pf532fa5deb)">
     <use style="fill:#bf00bf;stroke:#bf00bf;stroke-linecap:butt;stroke-width:0.5;" x="131.134609125" xlink:href="#mc0debf2262" y="304.9234524"/>
     <use style="fill:#bf00bf;stroke:#bf00bf;stroke-linecap:butt;stroke-width:0.5;" x="152.196109875" xlink:href="#mc0debf2262" y="203.114898"/>
     <use style="fill:#bf00bf;stroke:#bf00bf;stroke-linecap:butt;stroke-width:0.5;" x="164.112723" xlink:href="#mc0debf2262" y="153.6817212"/>
     <use style="fill:#bf00bf;stroke:#bf00bf;stroke-linecap:butt;stroke-width:0.5;" x="172.70920125" xlink:href="#mc0debf2262" y="134.0888472"/>
     <use style="fill:#bf00bf;stroke:#bf00bf;stroke-linecap:butt;stroke-width:0.5;" x="180.019175625" xlink:href="#mc0debf2262" y="123.5871"/>
     <use style="fill:#bf00bf;stroke:#bf00bf;stroke-linecap:butt;stroke-width:0.5;" x="186.86203425" xlink:href="#mc0debf2262" y="116.9587188"/>
     <use style="fill:#bf00bf;stroke:#bf00bf;stroke-linecap:butt;stroke-width:0.5;" x="193.402945125" xlink:href="#mc0debf2262" y="112.3834824"/>
     <use style="fill:#bf00bf;stroke:#bf00bf;stroke-linecap:butt;stroke-width:0.5;" x="199.747719" xlink:href="#mc0debf2262" y="109.090422"/>
     <use style="fill:#bf00bf;stroke:#bf00bf;stroke-linecap:butt;stroke-width:0.5;" x="205.929905625" xlink:href="#mc0debf2262" y="106.6942044"/>
     <use style="fill:#bf00bf;stroke:#bf00bf;stroke-linecap:butt;stroke-width:0.5;" x="211.990797" xlink:href="#mc0debf2262" y="104.8221972"/>
     <use style="fill:#bf00bf;stroke:#bf00bf;stroke-linecap:butt;stroke-width:0.5;" x="217.994911875" xlink:href="#mc0debf2262" y="103.3709796"/>
     <use style="fill:#bf00bf;stroke:#bf00bf;stroke-linecap:butt;stroke-width:0.5;" x="223.977090375" xlink:href="#mc0debf2262" y="102.2049252"/>
     <use style="fill:#bf00bf;stroke:#bf00bf;stroke-linecap:butt;stroke-width:0.5;" x="229.9063635" xlink:href="#mc0debf2262" y="101.2280976"/>
     <use style="fill:#bf00bf;stroke:#bf00bf;stroke-linecap:butt;stroke-width:0.5;" x="235.774989" xlink:href="#mc0debf2262" y="100.3982364"/>
     <use style="fill:#bf00bf;stroke:#bf00bf;stroke-linecap:butt;stroke-width:0.5;" x="241.6952295" xlink:href="#mc0debf2262" y="99.7075548"/>
     <use style="fill:#bf00bf;stroke:#bf00bf;stroke-linecap:butt;stroke-width:0.5;" x="247.621921875" xlink:href="#mc0debf2262" y="99.1054764"/>
     <use style="fill:#bf00bf;stroke:#bf00bf;stroke-linecap:butt;stroke-width:0.5;" x="253.47635325" xlink:href="#mc0debf2262" y="98.6067432"/>
     <use style="fill:#bf00bf;stroke:#bf00bf;stroke-linecap:butt;stroke-width:0.5;" x="259.30884825" xlink:href="#mc0debf2262" y="98.1588132"/>
     <use style="fill:#bf00bf;stroke:#bf00bf;stroke-linecap:butt;stroke-width:0.5;" x="265.174893" xlink:href="#mc0debf2262" y="97.7589648"/>
     <use style="fill:#bf00bf;stroke:#bf00bf;stroke-linecap:butt;stroke-width:0.5;" x="270.985451625" xlink:href="#mc0debf2262" y="97.3985796"/>
     <use style="fill:#bf00bf;stroke:#bf00bf;stroke-linecap:butt;stroke-width:0.5;" x="276.79084875" xlink:href="#mc0debf2262" y="97.1083512"/>
    </g>
   </g>
   <g id="line2d_2">
    <path clip-path="url(#pf532fa5deb)" d="
M130.9 476.694
L140.957 383.697
L149.253 370.313
L156.848 365.706
L163.927 363.714
L170.943 362.625
L177.806 361.994
L184.609 361.596
L191.417 361.33
L198.226 361.157
L204.969 361.011
L211.717 360.87
L218.447 360.767
L225.147 360.764
L231.877 360.702
L238.573 360.696
L245.223 360.644
L251.907 360.617
L258.567 360.6
L265.227 360.567
L271.884 360.548" style="fill:none;stroke:#ff0000;"/>
    <defs>
     <path d="
M0 1.5
C0.397805 1.5 0.77937 1.34195 1.06066 1.06066
C1.34195 0.77937 1.5 0.397805 1.5 0
C1.5 -0.397805 1.34195 -0.77937 1.06066 -1.06066
C0.77937 -1.34195 0.397805 -1.5 0 -1.5
C-0.397805 -1.5 -0.77937 -1.34195 -1.06066 -1.06066
C-1.34195 -0.77937 -1.5 -0.397805 -1.5 0
C-1.5 0.397805 -1.34195 0.77937 -1.06066 1.06066
C-0.77937 1.34195 -0.397805 1.5 0 1.5
z
" id="mc0eafcda7b" style="stroke:#ff0000;stroke-linecap:butt;stroke-width:0.5;"/>
    </defs>
    <g clip-path="url(#pf532fa5deb)">
     <use style="fill:#ff0000;stroke:#ff0000;stroke-linecap:butt;stroke-width:0.5;" x="130.899760875" xlink:href="#mc0eafcda7b" y="476.6944392"/>
     <use style="fill:#ff0000;stroke:#ff0000;stroke-linecap:butt;stroke-width:0.5;" x="140.956943625" xlink:href="#mc0eafcda7b" y="383.6965356"/>
     <use style="fill:#ff0000;stroke:#ff0000;stroke-linecap:butt;stroke-width:0.5;" x="149.2527645" xlink:href="#mc0eafcda7b" y="370.312992"/>
     <use style="fill:#ff0000;stroke:#ff0000;stroke-linecap:butt;stroke-width:0.5;" x="156.84791175" xlink:href="#mc0eafcda7b" y="365.7057012"/>
     <use style="fill:#ff0000;stroke:#ff0000;stroke-linecap:butt;stroke-width:0.5;" x="163.926909" xlink:href="#mc0eafcda7b" y="363.7136412"/>
     <use style="fill:#ff0000;stroke:#ff0000;stroke-linecap:butt;stroke-width:0.5;" x="170.942677875" xlink:href="#mc0eafcda7b" y="362.6253036"/>
     <use style="fill:#ff0000;stroke:#ff0000;stroke-linecap:butt;stroke-width:0.5;" x="177.8061825" xlink:href="#mc0eafcda7b" y="361.9942704"/>
     <use style="fill:#ff0000;stroke:#ff0000;stroke-linecap:butt;stroke-width:0.5;" x="184.6090395" xlink:href="#mc0eafcda7b" y="361.5964632"/>
     <use style="fill:#ff0000;stroke:#ff0000;stroke-linecap:butt;stroke-width:0.5;" x="191.417058" xlink:href="#mc0eafcda7b" y="361.3295196"/>
     <use style="fill:#ff0000;stroke:#ff0000;stroke-linecap:butt;stroke-width:0.5;" x="198.226366875" xlink:href="#mc0eafcda7b" y="361.1570004"/>
     <use style="fill:#ff0000;stroke:#ff0000;stroke-linecap:butt;stroke-width:0.5;" x="204.96857625" xlink:href="#mc0eafcda7b" y="361.0113192"/>
     <use style="fill:#ff0000;stroke:#ff0000;stroke-linecap:butt;stroke-width:0.5;" x="211.7172375" xlink:href="#mc0eafcda7b" y="360.8698716"/>
     <use style="fill:#ff0000;stroke:#ff0000;stroke-linecap:butt;stroke-width:0.5;" x="218.446543125" xlink:href="#mc0eafcda7b" y="360.7672068"/>
     <use style="fill:#ff0000;stroke:#ff0000;stroke-linecap:butt;stroke-width:0.5;" x="225.1474605" xlink:href="#mc0eafcda7b" y="360.7636536"/>
     <use style="fill:#ff0000;stroke:#ff0000;stroke-linecap:butt;stroke-width:0.5;" x="231.876766125" xlink:href="#mc0eafcda7b" y="360.702342"/>
     <use style="fill:#ff0000;stroke:#ff0000;stroke-linecap:butt;stroke-width:0.5;" x="238.572522" xlink:href="#mc0eafcda7b" y="360.6956136"/>
     <use style="fill:#ff0000;stroke:#ff0000;stroke-linecap:butt;stroke-width:0.5;" x="245.22311475" xlink:href="#mc0eafcda7b" y="360.6440544"/>
     <use style="fill:#ff0000;stroke:#ff0000;stroke-linecap:butt;stroke-width:0.5;" x="251.90725725" xlink:href="#mc0eafcda7b" y="360.6167628"/>
     <use style="fill:#ff0000;stroke:#ff0000;stroke-linecap:butt;stroke-width:0.5;" x="258.566882625" xlink:href="#mc0eafcda7b" y="360.5996016"/>
     <use style="fill:#ff0000;stroke:#ff0000;stroke-linecap:butt;stroke-width:0.5;" x="265.226508" xlink:href="#mc0eafcda7b" y="360.5668668"/>
     <use style="fill:#ff0000;stroke:#ff0000;stroke-linecap:butt;stroke-width:0.5;" x="271.883552625" xlink:href="#mc0eafcda7b" y="360.5480424"/>
    </g>
   </g>
   <g id="line2d_3">
    <path clip-path="url(#pf532fa5deb)" d="
M141.304 305.696
L148.2 204.196
L154.72 155.244
L160.805 135.751
L166.722 125.315
L172.57 118.71
L178.337 114.178
L184.107 110.862
L189.925 108.316
L195.699 106.337
L201.442 104.77
L207.289 103.497
L213.005 102.434
L218.787 101.552
L224.519 100.836
L230.25 100.243
L236.016 99.6926
L241.748 99.2217
L247.467 98.8981
L253.189 98.563
L258.896 98.256" style="fill:none;stroke:#0000ff;"/>
    <defs>
     <path d="
M0 1.5
C0.397805 1.5 0.77937 1.34195 1.06066 1.06066
C1.34195 0.77937 1.5 0.397805 1.5 0
C1.5 -0.397805 1.34195 -0.77937 1.06066 -1.06066
C0.77937 -1.34195 0.397805 -1.5 0 -1.5
C-0.397805 -1.5 -0.77937 -1.34195 -1.06066 -1.06066
C-1.34195 -0.77937 -1.5 -0.397805 -1.5 0
C-1.5 0.397805 -1.34195 0.77937 -1.06066 1.06066
C-0.77937 1.34195 -0.397805 1.5 0 1.5
z
" id="m60516ac18e" style="stroke:#0000ff;stroke-linecap:butt;stroke-width:0.5;"/>
    </defs>
    <g clip-path="url(#pf532fa5deb)">
     <use style="fill:#0000ff;stroke:#0000ff;stroke-linecap:butt;stroke-width:0.5;" x="141.3040545" xlink:href="#m60516ac18e" y="305.6962356"/>
     <use style="fill:#0000ff;stroke:#0000ff;stroke-linecap:butt;stroke-width:0.5;" x="148.1998185" xlink:href="#m60516ac18e" y="204.1962804"/>
     <use style="fill:#0000ff;stroke:#0000ff;stroke-linecap:butt;stroke-width:0.5;" x="154.720083375" xlink:href="#m60516ac18e" y="155.2436172"/>
     <use style="fill:#0000ff;stroke:#0000ff;stroke-linecap:butt;stroke-width:0.5;" x="160.805491875" xlink:href="#m60516ac18e" y="135.75114"/>
     <use style="fill:#0000ff;stroke:#0000ff;stroke-linecap:butt;stroke-width:0.5;" x="166.72186125" xlink:href="#m60516ac18e" y="125.3150892"/>
     <use style="fill:#0000ff;stroke:#0000ff;stroke-linecap:butt;stroke-width:0.5;" x="172.56984075" xlink:href="#m60516ac18e" y="118.7098416"/>
     <use style="fill:#0000ff;stroke:#0000ff;stroke-linecap:butt;stroke-width:0.5;" x="178.336526625" xlink:href="#m60516ac18e" y="114.1777728"/>
     <use style="fill:#0000ff;stroke:#0000ff;stroke-linecap:butt;stroke-width:0.5;" x="184.107083625" xlink:href="#m60516ac18e" y="110.8621836"/>
     <use style="fill:#0000ff;stroke:#0000ff;stroke-linecap:butt;stroke-width:0.5;" x="189.9253845" xlink:href="#m60516ac18e" y="108.3158244"/>
     <use style="fill:#0000ff;stroke:#0000ff;stroke-linecap:butt;stroke-width:0.5;" x="195.69852225" xlink:href="#m60516ac18e" y="106.3371456"/>
     <use style="fill:#0000ff;stroke:#0000ff;stroke-linecap:butt;stroke-width:0.5;" x="201.441981375" xlink:href="#m60516ac18e" y="104.769504"/>
     <use style="fill:#0000ff;stroke:#0000ff;stroke-linecap:butt;stroke-width:0.5;" x="207.2886705" xlink:href="#m60516ac18e" y="103.4967024"/>
     <use style="fill:#0000ff;stroke:#0000ff;stroke-linecap:butt;stroke-width:0.5;" x="213.00503175" xlink:href="#m60516ac18e" y="102.4335396"/>
     <use style="fill:#0000ff;stroke:#0000ff;stroke-linecap:butt;stroke-width:0.5;" x="218.787202125" xlink:href="#m60516ac18e" y="101.5521192"/>
     <use style="fill:#0000ff;stroke:#0000ff;stroke-linecap:butt;stroke-width:0.5;" x="224.519047875" xlink:href="#m60516ac18e" y="100.8358092"/>
     <use style="fill:#0000ff;stroke:#0000ff;stroke-linecap:butt;stroke-width:0.5;" x="230.24960325" xlink:href="#m60516ac18e" y="100.2431052"/>
     <use style="fill:#0000ff;stroke:#0000ff;stroke-linecap:butt;stroke-width:0.5;" x="236.016289125" xlink:href="#m60516ac18e" y="99.692586"/>
     <use style="fill:#0000ff;stroke:#0000ff;stroke-linecap:butt;stroke-width:0.5;" x="241.748134875" xlink:href="#m60516ac18e" y="99.2216736"/>
     <use style="fill:#0000ff;stroke:#0000ff;stroke-linecap:butt;stroke-width:0.5;" x="247.467076875" xlink:href="#m60516ac18e" y="98.8981056"/>
     <use style="fill:#0000ff;stroke:#0000ff;stroke-linecap:butt;stroke-width:0.5;" x="253.188599625" xlink:href="#m60516ac18e" y="98.5630464"/>
     <use style="fill:#0000ff;stroke:#0000ff;stroke-linecap:butt;stroke-width:0.5;" x="258.89592825" xlink:href="#m60516ac18e" y="98.2560348"/>
    </g>
   </g>
   <g id="line2d_4">
    <path clip-path="url(#pf532fa5deb)" d="
M148.44 476.732
L217.293 384.029
L279.503 370.401
L353.55 365.77
L418.804 363.694
L487.408 362.616
L556.485 361.987
L628.359 361.552
L701.316 361.298
L779.593 361.127
L858.403 360.95" style="fill:none;stroke:#008000;"/>
    <defs>
     <path d="
M0 1.5
C0.397805 1.5 0.77937 1.34195 1.06066 1.06066
C1.34195 0.77937 1.5 0.397805 1.5 0
C1.5 -0.397805 1.34195 -0.77937 1.06066 -1.06066
C0.77937 -1.34195 0.397805 -1.5 0 -1.5
C-0.397805 -1.5 -0.77937 -1.34195 -1.06066 -1.06066
C-1.34195 -0.77937 -1.5 -0.397805 -1.5 0
C-1.5 0.397805 -1.34195 0.77937 -1.06066 1.06066
C-0.77937 1.34195 -0.397805 1.5 0 1.5
z
" id="m78e0c95df6" style="stroke:#008000;stroke-linecap:butt;stroke-width:0.5;"/>
    </defs>
    <g clip-path="url(#pf532fa5deb)">
     <use style="fill:#008000;stroke:#008000;stroke-linecap:butt;stroke-width:0.5;" x="148.43982825" xlink:href="#m78e0c95df6" y="476.7316344"/>
     <use style="fill:#008000;stroke:#008000;stroke-linecap:butt;stroke-width:0.5;" x="217.292947875" xlink:href="#m78e0c95df6" y="384.029478"/>
     <use style="fill:#008000;stroke:#008000;stroke-linecap:butt;stroke-width:0.5;" x="279.503217" xlink:href="#m78e0c95df6" y="370.401444"/>
     <use style="fill:#008000;stroke:#008000;stroke-linecap:butt;stroke-width:0.5;" x="353.550096" xlink:href="#m78e0c95df6" y="365.76981"/>
     <use style="fill:#008000;stroke:#008000;stroke-linecap:butt;stroke-width:0.5;" x="418.80435975" xlink:href="#m78e0c95df6" y="363.693834"/>
     <use style="fill:#008000;stroke:#008000;stroke-linecap:butt;stroke-width:0.5;" x="487.408437" xlink:href="#m78e0c95df6" y="362.6156268"/>
     <use style="fill:#008000;stroke:#008000;stroke-linecap:butt;stroke-width:0.5;" x="556.4847915" xlink:href="#m78e0c95df6" y="361.9870884"/>
     <use style="fill:#008000;stroke:#008000;stroke-linecap:butt;stroke-width:0.5;" x="628.358679" xlink:href="#m78e0c95df6" y="361.5516324"/>
     <use style="fill:#008000;stroke:#008000;stroke-linecap:butt;stroke-width:0.5;" x="701.3164815" xlink:href="#m78e0c95df6" y="361.2977676"/>
     <use style="fill:#008000;stroke:#008000;stroke-linecap:butt;stroke-width:0.5;" x="779.59320975" xlink:href="#m78e0c95df6" y="361.1271384"/>
     <use style="fill:#008000;stroke:#008000;stroke-linecap:butt;stroke-width:0.5;" x="858.402862875" xlink:href="#m78e0c95df6" y="360.9500076"/>
    </g>
   </g>
   <g id="matplotlib.axis_1">
    <g id="xtick_1">
     <g id="line2d_5">
      <defs>
       <path d="
M0 0
L0 -4" id="m0012dd4eef" style="stroke:#000000;stroke-linecap:butt;stroke-width:0.5;"/>
      </defs>
      <g>
       <use style="stroke:#000000;stroke-linecap:butt;stroke-width:0.5;" x="124.875" xlink:href="#m0012dd4eef" y="510.3"/>
      </g>
     </g>
     <g id="line2d_6">
      <defs>
       <path d="
M0 0
L0 4" id="m476344969c" style="stroke:#000000;stroke-linecap:butt;stroke-width:0.5;"/>
      </defs>
      <g>
       <use style="stroke:#000000;stroke-linecap:butt;stroke-width:0.5;" x="124.875" xlink:href="#m476344969c" y="56.7"/>
      </g>
     </g>
     <g id="text_1">
      <!-- 0 -->
      <defs>
       <path d="
M31.7812 66.4062
Q24.1719 66.4062 20.3281 58.9062
Q16.5 51.4219 16.5 36.375
Q16.5 21.3906 20.3281 13.8906
Q24.1719 6.39062 31.7812 6.39062
Q39.4531 6.39062 43.2812 13.8906
Q47.125 21.3906 47.125 36.375
Q47.125 51.4219 43.2812 58.9062
Q39.4531 66.4062 31.7812 66.4062
M31.7812 74.2188
Q44.0469 74.2188 50.5156 64.5156
Q56.9844 54.8281 56.9844 36.375
Q56.9844 17.9688 50.5156 8.26562
Q44.0469 -1.42188 31.7812 -1.42188
Q19.5312 -1.42188 13.0625 8.26562
Q6.59375 17.9688 6.59375 36.375
Q6.59375 54.8281 13.0625 64.5156
Q19.5312 74.2188 31.7812 74.2188" id="DejaVuSans-30"/>
      </defs>
      <g transform="translate(121.8515625 523.20625)scale(0.12 -0.12)">
       <use xlink:href="#DejaVuSans-30"/>
      </g>
     </g>
    </g>
    <g id="xtick_2">
     <g id="line2d_7">
      <g>
       <use style="stroke:#000000;stroke-linecap:butt;stroke-width:0.5;" x="253.9125" xlink:href="#m0012dd4eef" y="510.3"/>
      </g>
     </g>
     <g id="line2d_8">
      <g>
       <use style="stroke:#000000;stroke-linecap:butt;stroke-width:0.5;" x="253.9125" xlink:href="#m476344969c" y="56.7"/>
      </g>
     </g>
     <g id="text_2">
      <!-- 1000 -->
      <defs>
       <path d="
M12.4062 8.29688
L28.5156 8.29688
L28.5156 63.9219
L10.9844 60.4062
L10.9844 69.3906
L28.4219 72.9062
L38.2812 72.9062
L38.2812 8.29688
L54.3906 8.29688
L54.3906 0
L12.4062 0
z
" id="DejaVuSans-31"/>
      </defs>
      <g transform="translate(239.7 523.20625)scale(0.12 -0.12)">
       <use xlink:href="#DejaVuSans-31"/>
       <use x="63.623046875" xlink:href="#DejaVuSans-30"/>
       <use x="127.24609375" xlink:href="#DejaVuSans-30"/>
       <use x="190.869140625" xlink:href="#DejaVuSans-30"/>
      </g>
     </g>
    </g>
    <g id="xtick_3">
     <g id="line2d_9">
      <g>
       <use style="stroke:#000000;stroke-linecap:butt;stroke-width:0.5;" x="382.95" xlink:href="#m0012dd4eef" y="510.3"/>
      </g>
     </g>
     <g id="line2d_10">
      <g>
       <use style="stroke:#000000;stroke-linecap:butt;stroke-width:0.5;" x="382.95" xlink:href="#m476344969c" y="56.7"/>
      </g>
     </g>
     <g id="text_3">
      <!-- 2000 -->
      <defs>
       <path d="
M19.1875 8.29688
L53.6094 8.29688
L53.6094 0
L7.32812 0
L7.32812 8.29688
Q12.9375 14.1094 22.625 23.8906
Q32.3281 33.6875 34.8125 36.5312
Q39.5469 41.8438 41.4219 45.5312
Q43.3125 49.2188 43.3125 52.7812
Q43.3125 58.5938 39.2344 62.25
Q35.1562 65.9219 28.6094 65.9219
Q23.9688 65.9219 18.8125 64.3125
Q13.6719 62.7031 7.8125 59.4219
L7.8125 69.3906
Q13.7656 71.7812 18.9375 73
Q24.125 74.2188 28.4219 74.2188
Q39.75 74.2188 46.4844 68.5469
Q53.2188 62.8906 53.2188 53.4219
Q53.2188 48.9219 51.5312 44.8906
Q49.8594 40.875 45.4062 35.4062
Q44.1875 33.9844 37.6406 27.2188
Q31.1094 20.4531 19.1875 8.29688" id="DejaVuSans-32"/>
      </defs>
      <g transform="translate(368.518125 523.20625)scale(0.12 -0.12)">
       <use xlink:href="#DejaVuSans-32"/>
       <use x="63.623046875" xlink:href="#DejaVuSans-30"/>
       <use x="127.24609375" xlink:href="#DejaVuSans-30"/>
       <use x="190.869140625" xlink:href="#DejaVuSans-30"/>
      </g>
     </g>
    </g>
    <g id="xtick_4">
     <g id="line2d_11">
      <g>
       <use style="stroke:#000000;stroke-linecap:butt;stroke-width:0.5;" x="511.9875" xlink:href="#m0012dd4eef" y="510.3"/>
      </g>
     </g>
     <g id="line2d_12">
      <g>
       <use style="stroke:#000000;stroke-linecap:butt;stroke-width:0.5;" x="511.9875" xlink:href="#m476344969c" y="56.7"/>
      </g>
     </g>
     <g id="text_4">
      <!-- 3000 -->
      <defs>
       <path d="
M40.5781 39.3125
Q47.6562 37.7969 51.625 33
Q55.6094 28.2188 55.6094 21.1875
Q55.6094 10.4062 48.1875 4.48438
Q40.7656 -1.42188 27.0938 -1.42188
Q22.5156 -1.42188 17.6562 -0.515625
Q12.7969 0.390625 7.625 2.20312
L7.625 11.7188
Q11.7188 9.32812 16.5938 8.10938
Q21.4844 6.89062 26.8125 6.89062
Q36.0781 6.89062 40.9375 10.5469
Q45.7969 14.2031 45.7969 21.1875
Q45.7969 27.6406 41.2812 31.2656
Q36.7656 34.9062 28.7188 34.9062
L20.2188 34.9062
L20.2188 43.0156
L29.1094 43.0156
Q36.375 43.0156 40.2344 45.9219
Q44.0938 48.8281 44.0938 54.2969
Q44.0938 59.9062 40.1094 62.9062
Q36.1406 65.9219 28.7188 65.9219
Q24.6562 65.9219 20.0156 65.0312
Q15.375 64.1562 9.8125 62.3125
L9.8125 71.0938
Q15.4375 72.6562 20.3438 73.4375
Q25.25 74.2188 29.5938 74.2188
Q40.8281 74.2188 47.3594 69.1094
Q53.9062 64.0156 53.9062 55.3281
Q53.9062 49.2656 50.4375 45.0938
Q46.9688 40.9219 40.5781 39.3125" id="DejaVuSans-33"/>
      </defs>
      <g transform="translate(497.5734375 523.20625)scale(0.12 -0.12)">
       <use xlink:href="#DejaVuSans-33"/>
       <use x="63.623046875" xlink:href="#DejaVuSans-30"/>
       <use x="127.24609375" xlink:href="#DejaVuSans-30"/>
       <use x="190.869140625" xlink:href="#DejaVuSans-30"/>
      </g>
     </g>
    </g>
    <g id="xtick_5">
     <g id="line2d_13">
      <g>
       <use style="stroke:#000000;stroke-linecap:butt;stroke-width:0.5;" x="641.025" xlink:href="#m0012dd4eef" y="510.3"/>
      </g>
     </g>
     <g id="line2d_14">
      <g>
       <use style="stroke:#000000;stroke-linecap:butt;stroke-width:0.5;" x="641.025" xlink:href="#m476344969c" y="56.7"/>
      </g>
     </g>
     <g id="text_5">
      <!-- 4000 -->
      <defs>
       <path d="
M37.7969 64.3125
L12.8906 25.3906
L37.7969 25.3906
z

M35.2031 72.9062
L47.6094 72.9062
L47.6094 25.3906
L58.0156 25.3906
L58.0156 17.1875
L47.6094 17.1875
L47.6094 0
L37.7969 0
L37.7969 17.1875
L4.89062 17.1875
L4.89062 26.7031
z
" id="DejaVuSans-34"/>
      </defs>
      <g transform="translate(626.446875 523.20625)scale(0.12 -0.12)">
       <use xlink:href="#DejaVuSans-34"/>
       <use x="63.623046875" xlink:href="#DejaVuSans-30"/>
       <use x="127.24609375" xlink:href="#DejaVuSans-30"/>
       <use x="190.869140625" xlink:href="#DejaVuSans-30"/>
      </g>
     </g>
    </g>
    <g id="xtick_6">
     <g id="line2d_15">
      <g>
       <use style="stroke:#000000;stroke-linecap:butt;stroke-width:0.5;" x="770.0625" xlink:href="#m0012dd4eef" y="510.3"/>
      </g>
     </g>
     <g id="line2d_16">
      <g>
       <use style="stroke:#000000;stroke-linecap:butt;stroke-width:0.5;" x="770.0625" xlink:href="#m476344969c" y="56.7"/>
      </g>
     </g>
     <g id="text_6">
      <!-- 5000 -->
      <defs>
       <path d="
M10.7969 72.9062
L49.5156 72.9062
L49.5156 64.5938
L19.8281 64.5938
L19.8281 46.7344
Q21.9688 47.4688 24.1094 47.8281
Q26.2656 48.1875 28.4219 48.1875
Q40.625 48.1875 47.75 41.5
Q54.8906 34.8125 54.8906 23.3906
Q54.8906 11.625 47.5625 5.09375
Q40.2344 -1.42188 26.9062 -1.42188
Q22.3125 -1.42188 17.5469 -0.640625
Q12.7969 0.140625 7.71875 1.70312
L7.71875 11.625
Q12.1094 9.23438 16.7969 8.0625
Q21.4844 6.89062 26.7031 6.89062
Q35.1562 6.89062 40.0781 11.3281
Q45.0156 15.7656 45.0156 23.3906
Q45.0156 31 40.0781 35.4375
Q35.1562 39.8906 26.7031 39.8906
Q22.75 39.8906 18.8125 39.0156
Q14.8906 38.1406 10.7969 36.2812
z
" id="DejaVuSans-35"/>
      </defs>
      <g transform="translate(755.6540625 523.20625)scale(0.12 -0.12)">
       <use xlink:href="#DejaVuSans-35"/>
       <use x="63.623046875" xlink:href="#DejaVuSans-30"/>
       <use x="127.24609375" xlink:href="#DejaVuSans-30"/>
       <use x="190.869140625" xlink:href="#DejaVuSans-30"/>
      </g>
     </g>
    </g>
    <g id="xtick_7">
     <g id="line2d_17">
      <g>
       <use style="stroke:#000000;stroke-linecap:butt;stroke-width:0.5;" x="899.1" xlink:href="#m0012dd4eef" y="510.3"/>
      </g>
     </g>
     <g id="line2d_18">
      <g>
       <use style="stroke:#000000;stroke-linecap:butt;stroke-width:0.5;" x="899.1" xlink:href="#m476344969c" y="56.7"/>
      </g>
     </g>
     <g id="text_7">
      <!-- 6000 -->
      <defs>
       <path d="
M33.0156 40.375
Q26.375 40.375 22.4844 35.8281
Q18.6094 31.2969 18.6094 23.3906
Q18.6094 15.5312 22.4844 10.9531
Q26.375 6.39062 33.0156 6.39062
Q39.6562 6.39062 43.5312 10.9531
Q47.4062 15.5312 47.4062 23.3906
Q47.4062 31.2969 43.5312 35.8281
Q39.6562 40.375 33.0156 40.375
M52.5938 71.2969
L52.5938 62.3125
Q48.875 64.0625 45.0938 64.9844
Q41.3125 65.9219 37.5938 65.9219
Q27.8281 65.9219 22.6719 59.3281
Q17.5312 52.7344 16.7969 39.4062
Q19.6719 43.6562 24.0156 45.9219
Q28.375 48.1875 33.5938 48.1875
Q44.5781 48.1875 50.9531 41.5156
Q57.3281 34.8594 57.3281 23.3906
Q57.3281 12.1562 50.6875 5.35938
Q44.0469 -1.42188 33.0156 -1.42188
Q20.3594 -1.42188 13.6719 8.26562
Q6.98438 17.9688 6.98438 36.375
Q6.98438 53.6562 15.1875 63.9375
Q23.3906 74.2188 37.2031 74.2188
Q40.9219 74.2188 44.7031 73.4844
Q48.4844 72.75 52.5938 71.2969" id="DejaVuSans-36"/>
      </defs>
      <g transform="translate(884.6475 523.20625)scale(0.12 -0.12)">
       <use xlink:href="#DejaVuSans-36"/>
       <use x="63.623046875" xlink:href="#DejaVuSans-30"/>
       <use x="127.24609375" xlink:href="#DejaVuSans-30"/>
       <use x="190.869140625" xlink:href="#DejaVuSans-30"/>
      </g>
     </g>
    </g>
    <g id="text_8">
     <!-- Excution Time (s) -->
     <defs>
      <path d="
M8.01562 75.875
L15.8281 75.875
Q23.1406 64.3594 26.7812 53.3125
Q30.4219 42.2812 30.4219 31.3906
Q30.4219 20.4531 26.7812 9.375
Q23.1406 -1.70312 15.8281 -13.1875
L8.01562 -13.1875
Q14.5 -2 17.7031 9.0625
Q20.9062 20.125 20.9062 31.3906
Q20.9062 42.6719 17.7031 53.6562
Q14.5 64.6562 8.01562 75.875" id="DejaVuSans-29"/>
      <path d="
M30.6094 48.3906
Q23.3906 48.3906 19.1875 42.75
Q14.9844 37.1094 14.9844 27.2969
Q14.9844 17.4844 19.1562 11.8438
Q23.3438 6.20312 30.6094 6.20312
Q37.7969 6.20312 41.9844 11.8594
Q46.1875 17.5312 46.1875 27.2969
Q46.1875 37.0156 41.9844 42.7031
Q37.7969 48.3906 30.6094 48.3906
M30.6094 56
Q42.3281 56 49.0156 48.375
Q55.7188 40.7656 55.7188 27.2969
Q55.7188 13.875 49.0156 6.21875
Q42.3281 -1.42188 30.6094 -1.42188
Q18.8438 -1.42188 12.1719 6.21875
Q5.51562 13.875 5.51562 27.2969
Q5.51562 40.7656 12.1719 48.375
Q18.8438 56 30.6094 56" id="DejaVuSans-6f"/>
      <path d="
M52 44.1875
Q55.375 50.25 60.0625 53.125
Q64.75 56 71.0938 56
Q79.6406 56 84.2812 50.0156
Q88.9219 44.0469 88.9219 33.0156
L88.9219 0
L79.8906 0
L79.8906 32.7188
Q79.8906 40.5781 77.0938 44.375
Q74.3125 48.1875 68.6094 48.1875
Q61.625 48.1875 57.5625 43.5469
Q53.5156 38.9219 53.5156 30.9062
L53.5156 0
L44.4844 0
L44.4844 32.7188
Q44.4844 40.625 41.7031 44.4062
Q38.9219 48.1875 33.1094 48.1875
Q26.2188 48.1875 22.1562 43.5312
Q18.1094 38.875 18.1094 30.9062
L18.1094 0
L9.07812 0
L9.07812 54.6875
L18.1094 54.6875
L18.1094 46.1875
Q21.1875 51.2188 25.4844 53.6094
Q29.7812 56 35.6875 56
Q41.6562 56 45.8281 52.9688
Q50 49.9531 52 44.1875" id="DejaVuSans-6d"/>
      <path d="
M54.8906 33.0156
L54.8906 0
L45.9062 0
L45.9062 32.7188
Q45.9062 40.4844 42.875 44.3281
Q39.8438 48.1875 33.7969 48.1875
Q26.5156 48.1875 22.3125 43.5469
Q18.1094 38.9219 18.1094 30.9062
L18.1094 0
L9.07812 0
L9.07812 54.6875
L18.1094 54.6875
L18.1094 46.1875
Q21.3438 51.125 25.7031 53.5625
Q30.0781 56 35.7969 56
Q45.2188 56 50.0469 50.1719
Q54.8906 44.3438 54.8906 33.0156" id="DejaVuSans-6e"/>
      <path d="
M9.8125 72.9062
L55.9062 72.9062
L55.9062 64.5938
L19.6719 64.5938
L19.6719 43.0156
L54.3906 43.0156
L54.3906 34.7188
L19.6719 34.7188
L19.6719 8.29688
L56.7812 8.29688
L56.7812 0
L9.8125 0
z
" id="DejaVuSans-45"/>
      <path id="DejaVuSans-20"/>
      <path d="
M54.8906 54.6875
L35.1094 28.0781
L55.9062 0
L45.3125 0
L29.3906 21.4844
L13.4844 0
L2.875 0
L24.125 28.6094
L4.6875 54.6875
L15.2812 54.6875
L29.7812 35.2031
L44.2812 54.6875
z
" id="DejaVuSans-78"/>
      <path d="
M9.42188 54.6875
L18.4062 54.6875
L18.4062 0
L9.42188 0
z

M9.42188 75.9844
L18.4062 75.9844
L18.4062 64.5938
L9.42188 64.5938
z
" id="DejaVuSans-69"/>
      <path d="
M8.5 21.5781
L8.5 54.6875
L17.4844 54.6875
L17.4844 21.9219
Q17.4844 14.1562 20.5 10.2656
Q23.5312 6.39062 29.5938 6.39062
Q36.8594 6.39062 41.0781 11.0312
Q45.3125 15.6719 45.3125 23.6875
L45.3125 54.6875
L54.2969 54.6875
L54.2969 0
L45.3125 0
L45.3125 8.40625
Q42.0469 3.42188 37.7188 1
Q33.4062 -1.42188 27.6875 -1.42188
Q18.2656 -1.42188 13.375 4.4375
Q8.5 10.2969 8.5 21.5781
M31.1094 56
z
" id="DejaVuSans-75"/>
      <path d="
M18.3125 70.2188
L18.3125 54.6875
L36.8125 54.6875
L36.8125 47.7031
L18.3125 47.7031
L18.3125 18.0156
Q18.3125 11.3281 20.1406 9.42188
Q21.9688 7.51562 27.5938 7.51562
L36.8125 7.51562
L36.8125 0
L27.5938 0
Q17.1875 0 13.2344 3.875
Q9.28125 7.76562 9.28125 18.0156
L9.28125 47.7031
L2.6875 47.7031
L2.6875 54.6875
L9.28125 54.6875
L9.28125 70.2188
z
" id="DejaVuSans-74"/>
      <path d="
M31 75.875
Q24.4688 64.6562 21.2812 53.6562
Q18.1094 42.6719 18.1094 31.3906
Q18.1094 20.125 21.3125 9.0625
Q24.5156 -2 31 -13.1875
L23.1875 -13.1875
Q15.875 -1.70312 12.2344 9.375
Q8.59375 20.4531 8.59375 31.3906
Q8.59375 42.2812 12.2031 53.3125
Q15.8281 64.3594 23.1875 75.875
z
" id="DejaVuSans-28"/>
      <path d="
M56.2031 29.5938
L56.2031 25.2031
L14.8906 25.2031
Q15.4844 15.9219 20.4844 11.0625
Q25.4844 6.20312 34.4219 6.20312
Q39.5938 6.20312 44.4531 7.46875
Q49.3125 8.73438 54.1094 11.2812
L54.1094 2.78125
Q49.2656 0.734375 44.1875 -0.34375
Q39.1094 -1.42188 33.8906 -1.42188
Q20.7969 -1.42188 13.1562 6.1875
Q5.51562 13.8125 5.51562 26.8125
Q5.51562 40.2344 12.7656 48.1094
Q20.0156 56 32.3281 56
Q43.3594 56 49.7812 48.8906
Q56.2031 41.7969 56.2031 29.5938
M47.2188 32.2344
Q47.125 39.5938 43.0938 43.9844
Q39.0625 48.3906 32.4219 48.3906
Q24.9062 48.3906 20.3906 44.1406
Q15.875 39.8906 15.1875 32.1719
z
" id="DejaVuSans-65"/>
      <path d="
M48.7812 52.5938
L48.7812 44.1875
Q44.9688 46.2969 41.1406 47.3438
Q37.3125 48.3906 33.4062 48.3906
Q24.6562 48.3906 19.8125 42.8438
Q14.9844 37.3125 14.9844 27.2969
Q14.9844 17.2812 19.8125 11.7344
Q24.6562 6.20312 33.4062 6.20312
Q37.3125 6.20312 41.1406 7.25
Q44.9688 8.29688 48.7812 10.4062
L48.7812 2.09375
Q45.0156 0.34375 40.9844 -0.53125
Q36.9688 -1.42188 32.4219 -1.42188
Q20.0625 -1.42188 12.7812 6.34375
Q5.51562 14.1094 5.51562 27.2969
Q5.51562 40.6719 12.8594 48.3281
Q20.2188 56 33.0156 56
Q37.1562 56 41.1094 55.1406
Q45.0625 54.2969 48.7812 52.5938" id="DejaVuSans-63"/>
      <path d="
M44.2812 53.0781
L44.2812 44.5781
Q40.4844 46.5312 36.375 47.5
Q32.2812 48.4844 27.875 48.4844
Q21.1875 48.4844 17.8438 46.4375
Q14.5 44.3906 14.5 40.2812
Q14.5 37.1562 16.8906 35.375
Q19.2812 33.5938 26.5156 31.9844
L29.5938 31.2969
Q39.1562 29.25 43.1875 25.5156
Q47.2188 21.7812 47.2188 15.0938
Q47.2188 7.46875 41.1875 3.01562
Q35.1562 -1.42188 24.6094 -1.42188
Q20.2188 -1.42188 15.4531 -0.5625
Q10.6875 0.296875 5.42188 2
L5.42188 11.2812
Q10.4062 8.6875 15.2344 7.39062
Q20.0625 6.10938 24.8125 6.10938
Q31.1562 6.10938 34.5625 8.28125
Q37.9844 10.4531 37.9844 14.4062
Q37.9844 18.0625 35.5156 20.0156
Q33.0625 21.9688 24.7031 23.7812
L21.5781 24.5156
Q13.2344 26.2656 9.51562 29.9062
Q5.8125 33.5469 5.8125 39.8906
Q5.8125 47.6094 11.2812 51.7969
Q16.75 56 26.8125 56
Q31.7812 56 36.1719 55.2656
Q40.5781 54.5469 44.2812 53.0781" id="DejaVuSans-73"/>
      <path d="
M-0.296875 72.9062
L61.375 72.9062
L61.375 64.5938
L35.5 64.5938
L35.5 0
L25.5938 0
L25.5938 64.5938
L-0.296875 64.5938
z
" id="DejaVuSans-54"/>
     </defs>
     <g transform="translate(460.3696875 537.495)scale(0.12 -0.12)">
      <use xlink:href="#DejaVuSans-45"/>
      <use x="63.18359375" xlink:href="#DejaVuSans-78"/>
      <use x="120.61328125" xlink:href="#DejaVuSans-63"/>
      <use x="175.59375" xlink:href="#DejaVuSans-75"/>
      <use x="238.97265625" xlink:href="#DejaVuSans-74"/>
      <use x="278.181640625" xlink:href="#DejaVuSans-69"/>
      <use x="305.96484375" xlink:href="#DejaVuSans-6f"/>
      <use x="367.146484375" xlink:href="#DejaVuSans-6e"/>
      <use x="430.525390625" xlink:href="#DejaVuSans-20"/>
      <use x="462.3125" xlink:href="#DejaVuSans-54"/>
      <use x="520.271484375" xlink:href="#DejaVuSans-69"/>
      <use x="548.0546875" xlink:href="#DejaVuSans-6d"/>
      <use x="645.466796875" xlink:href="#DejaVuSans-65"/>
      <use x="706.990234375" xlink:href="#DejaVuSans-20"/>
      <use x="738.77734375" xlink:href="#DejaVuSans-28"/>
      <use x="777.791015625" xlink:href="#DejaVuSans-73"/>
      <use x="829.890625" xlink:href="#DejaVuSans-29"/>
     </g>
    </g>
   </g>
   <g id="matplotlib.axis_2">
    <g id="ytick_1">
     <g id="line2d_19">
      <defs>
       <path d="
M0 0
L4 0" id="me8a85f7bf6" style="stroke:#000000;stroke-linecap:butt;stroke-width:0.5;"/>
      </defs>
      <g>
       <use style="stroke:#000000;stroke-linecap:butt;stroke-width:0.5;" x="124.875" xlink:href="#me8a85f7bf6" y="510.3"/>
      </g>
     </g>
     <g id="line2d_20">
      <defs>
       <path d="
M0 0
L-4 0" id="m1a32005dea" style="stroke:#000000;stroke-linecap:butt;stroke-width:0.5;"/>
      </defs>
      <g>
       <use style="stroke:#000000;stroke-linecap:butt;stroke-width:0.5;" x="899.1" xlink:href="#m1a32005dea" y="510.3"/>
      </g>
     </g>
     <g id="text_9">
      <!-- −9 -->
      <defs>
       <path d="
M10.9844 1.51562
L10.9844 10.5
Q14.7031 8.73438 18.5 7.8125
Q22.3125 6.89062 25.9844 6.89062
Q35.75 6.89062 40.8906 13.4531
Q46.0469 20.0156 46.7812 33.4062
Q43.9531 29.2031 39.5938 26.9531
Q35.25 24.7031 29.9844 24.7031
Q19.0469 24.7031 12.6719 31.3125
Q6.29688 37.9375 6.29688 49.4219
Q6.29688 60.6406 12.9375 67.4219
Q19.5781 74.2188 30.6094 74.2188
Q43.2656 74.2188 49.9219 64.5156
Q56.5938 54.8281 56.5938 36.375
Q56.5938 19.1406 48.4062 8.85938
Q40.2344 -1.42188 26.4219 -1.42188
Q22.7031 -1.42188 18.8906 -0.6875
Q15.0938 0.046875 10.9844 1.51562
M30.6094 32.4219
Q37.25 32.4219 41.125 36.9531
Q45.0156 41.5 45.0156 49.4219
Q45.0156 57.2812 41.125 61.8438
Q37.25 66.4062 30.6094 66.4062
Q23.9688 66.4062 20.0938 61.8438
Q16.2188 57.2812 16.2188 49.4219
Q16.2188 41.5 20.0938 36.9531
Q23.9688 32.4219 30.6094 32.4219" id="DejaVuSans-39"/>
       <path d="
M10.5938 35.5
L73.1875 35.5
L73.1875 27.2031
L10.5938 27.2031
z
" id="DejaVuSans-2212"/>
      </defs>
      <g transform="translate(105.299375 514.6678125)scale(0.12 -0.12)">
       <use xlink:href="#DejaVuSans-2212"/>
       <use x="83.7890625" xlink:href="#DejaVuSans-39"/>
      </g>
     </g>
    </g>
    <g id="ytick_2">
     <g id="line2d_21">
      <g>
       <use style="stroke:#000000;stroke-linecap:butt;stroke-width:0.5;" x="124.875" xlink:href="#me8a85f7bf6" y="434.7"/>
      </g>
     </g>
     <g id="line2d_22">
      <g>
       <use style="stroke:#000000;stroke-linecap:butt;stroke-width:0.5;" x="899.1" xlink:href="#m1a32005dea" y="434.7"/>
      </g>
     </g>
     <g id="text_10">
      <!-- −8 -->
      <defs>
       <path d="
M31.7812 34.625
Q24.75 34.625 20.7188 30.8594
Q16.7031 27.0938 16.7031 20.5156
Q16.7031 13.9219 20.7188 10.1562
Q24.75 6.39062 31.7812 6.39062
Q38.8125 6.39062 42.8594 10.1719
Q46.9219 13.9688 46.9219 20.5156
Q46.9219 27.0938 42.8906 30.8594
Q38.875 34.625 31.7812 34.625
M21.9219 38.8125
Q15.5781 40.375 12.0312 44.7188
Q8.5 49.0781 8.5 55.3281
Q8.5 64.0625 14.7188 69.1406
Q20.9531 74.2188 31.7812 74.2188
Q42.6719 74.2188 48.875 69.1406
Q55.0781 64.0625 55.0781 55.3281
Q55.0781 49.0781 51.5312 44.7188
Q48 40.375 41.7031 38.8125
Q48.8281 37.1562 52.7969 32.3125
Q56.7812 27.4844 56.7812 20.5156
Q56.7812 9.90625 50.3125 4.23438
Q43.8438 -1.42188 31.7812 -1.42188
Q19.7344 -1.42188 13.25 4.23438
Q6.78125 9.90625 6.78125 20.5156
Q6.78125 27.4844 10.7812 32.3125
Q14.7969 37.1562 21.9219 38.8125
M18.3125 54.3906
Q18.3125 48.7344 21.8438 45.5625
Q25.3906 42.3906 31.7812 42.3906
Q38.1406 42.3906 41.7188 45.5625
Q45.3125 48.7344 45.3125 54.3906
Q45.3125 60.0625 41.7188 63.2344
Q38.1406 66.4062 31.7812 66.4062
Q25.3906 66.4062 21.8438 63.2344
Q18.3125 60.0625 18.3125 54.3906" id="DejaVuSans-38"/>
      </defs>
      <g transform="translate(105.276875 439.0678125)scale(0.12 -0.12)">
       <use xlink:href="#DejaVuSans-2212"/>
       <use x="83.7890625" xlink:href="#DejaVuSans-38"/>
      </g>
     </g>
    </g>
    <g id="ytick_3">
     <g id="line2d_23">
      <g>
       <use style="stroke:#000000;stroke-linecap:butt;stroke-width:0.5;" x="124.875" xlink:href="#me8a85f7bf6" y="359.1"/>
      </g>
     </g>
     <g id="line2d_24">
      <g>
       <use style="stroke:#000000;stroke-linecap:butt;stroke-width:0.5;" x="899.1" xlink:href="#m1a32005dea" y="359.1"/>
      </g>
     </g>
     <g id="text_11">
      <!-- −7 -->
      <defs>
       <path d="
M8.20312 72.9062
L55.0781 72.9062
L55.0781 68.7031
L28.6094 0
L18.3125 0
L43.2188 64.5938
L8.20312 64.5938
z
" id="DejaVuSans-37"/>
      </defs>
      <g transform="translate(105.48125 363.474375)scale(0.12 -0.12)">
       <use xlink:href="#DejaVuSans-2212"/>
       <use x="83.7890625" xlink:href="#DejaVuSans-37"/>
      </g>
     </g>
    </g>
    <g id="ytick_4">
     <g id="line2d_25">
      <g>
       <use style="stroke:#000000;stroke-linecap:butt;stroke-width:0.5;" x="124.875" xlink:href="#me8a85f7bf6" y="283.5"/>
      </g>
     </g>
     <g id="line2d_26">
      <g>
       <use style="stroke:#000000;stroke-linecap:butt;stroke-width:0.5;" x="899.1" xlink:href="#m1a32005dea" y="283.5"/>
      </g>
     </g>
     <g id="text_12">
      <!-- −6 -->
      <g transform="translate(105.21125 287.8678125)scale(0.12 -0.12)">
       <use xlink:href="#DejaVuSans-2212"/>
       <use x="83.7890625" xlink:href="#DejaVuSans-36"/>
      </g>
     </g>
    </g>
    <g id="ytick_5">
     <g id="line2d_27">
      <g>
       <use style="stroke:#000000;stroke-linecap:butt;stroke-width:0.5;" x="124.875" xlink:href="#me8a85f7bf6" y="207.9"/>
      </g>
     </g>
     <g id="line2d_28">
      <g>
       <use style="stroke:#000000;stroke-linecap:butt;stroke-width:0.5;" x="899.1" xlink:href="#m1a32005dea" y="207.9"/>
      </g>
     </g>
     <g id="text_13">
      <!-- −5 -->
      <g transform="translate(105.50375 212.1890625)scale(0.12 -0.12)">
       <use xlink:href="#DejaVuSans-2212"/>
       <use x="83.7890625" xlink:href="#DejaVuSans-35"/>
      </g>
     </g>
    </g>
    <g id="ytick_6">
     <g id="line2d_29">
      <g>
       <use style="stroke:#000000;stroke-linecap:butt;stroke-width:0.5;" x="124.875" xlink:href="#me8a85f7bf6" y="132.3"/>
      </g>
     </g>
     <g id="line2d_30">
      <g>
       <use style="stroke:#000000;stroke-linecap:butt;stroke-width:0.5;" x="899.1" xlink:href="#m1a32005dea" y="132.3"/>
      </g>
     </g>
     <g id="text_14">
      <!-- −4 -->
      <g transform="translate(105.12875 136.674375)scale(0.12 -0.12)">
       <use xlink:href="#DejaVuSans-2212"/>
       <use x="83.7890625" xlink:href="#DejaVuSans-34"/>
      </g>
     </g>
    </g>
    <g id="ytick_7">
     <g id="line2d_31">
      <g>
       <use style="stroke:#000000;stroke-linecap:butt;stroke-width:0.5;" x="124.875" xlink:href="#me8a85f7bf6" y="56.7"/>
      </g>
     </g>
     <g id="line2d_32">
      <g>
       <use style="stroke:#000000;stroke-linecap:butt;stroke-width:0.5;" x="899.1" xlink:href="#m1a32005dea" y="56.7"/>
      </g>
     </g>
     <g id="text_15">
      <!-- −3 -->
      <g transform="translate(105.4175 61.0678125)scale(0.12 -0.12)">
       <use xlink:href="#DejaVuSans-2212"/>
       <use x="83.7890625" xlink:href="#DejaVuSans-33"/>
      </g>
     </g>
    </g>
    <g id="text_16">
     <!-- Model Likelihood -->
     <defs>
      <path d="
M9.8125 72.9062
L24.5156 72.9062
L43.1094 23.2969
L61.8125 72.9062
L76.5156 72.9062
L76.5156 0
L66.8906 0
L66.8906 64.0156
L48.0938 14.0156
L38.1875 14.0156
L19.3906 64.0156
L19.3906 0
L9.8125 0
z
" id="DejaVuSans-4d"/>
      <path d="
M9.8125 72.9062
L19.6719 72.9062
L19.6719 8.29688
L55.1719 8.29688
L55.1719 0
L9.8125 0
z
" id="DejaVuSans-4c"/>
      <path d="
M9.07812 75.9844
L18.1094 75.9844
L18.1094 31.1094
L44.9219 54.6875
L56.3906 54.6875
L27.3906 29.1094
L57.625 0
L45.9062 0
L18.1094 26.7031
L18.1094 0
L9.07812 0
z
" id="DejaVuSans-6b"/>
      <path d="
M9.42188 75.9844
L18.4062 75.9844
L18.4062 0
L9.42188 0
z
" id="DejaVuSans-6c"/>
      <path d="
M54.8906 33.0156
L54.8906 0
L45.9062 0
L45.9062 32.7188
Q45.9062 40.4844 42.875 44.3281
Q39.8438 48.1875 33.7969 48.1875
Q26.5156 48.1875 22.3125 43.5469
Q18.1094 38.9219 18.1094 30.9062
L18.1094 0
L9.07812 0
L9.07812 75.9844
L18.1094 75.9844
L18.1094 46.1875
Q21.3438 51.125 25.7031 53.5625
Q30.0781 56 35.7969 56
Q45.2188 56 50.0469 50.1719
Q54.8906 44.3438 54.8906 33.0156" id="DejaVuSans-68"/>
      <path d="
M45.4062 46.3906
L45.4062 75.9844
L54.3906 75.9844
L54.3906 0
L45.4062 0
L45.4062 8.20312
Q42.5781 3.32812 38.25 0.953125
Q33.9375 -1.42188 27.875 -1.42188
Q17.9688 -1.42188 11.7344 6.48438
Q5.51562 14.4062 5.51562 27.2969
Q5.51562 40.1875 11.7344 48.0938
Q17.9688 56 27.875 56
Q33.9375 56 38.25 53.625
Q42.5781 51.2656 45.4062 46.3906
M14.7969 27.2969
Q14.7969 17.3906 18.875 11.75
Q22.9531 6.10938 30.0781 6.10938
Q37.2031 6.10938 41.2969 11.75
Q45.4062 17.3906 45.4062 27.2969
Q45.4062 37.2031 41.2969 42.8438
Q37.2031 48.4844 30.0781 48.4844
Q22.9531 48.4844 18.875 42.8438
Q14.7969 37.2031 14.7969 27.2969" id="DejaVuSans-64"/>
     </defs>
     <g transform="translate(100.12875 332.953125)rotate(-90.0)scale(0.12 -0.12)">
      <use xlink:href="#DejaVuSans-4d"/>
      <use x="86.279296875" xlink:href="#DejaVuSans-6f"/>
      <use x="147.4609375" xlink:href="#DejaVuSans-64"/>
      <use x="210.9375" xlink:href="#DejaVuSans-65"/>
      <use x="272.4609375" xlink:href="#DejaVuSans-6c"/>
      <use x="300.244140625" xlink:href="#DejaVuSans-20"/>
      <use x="332.03125" xlink:href="#DejaVuSans-4c"/>
      <use x="387.744140625" xlink:href="#DejaVuSans-69"/>
      <use x="415.52734375" xlink:href="#DejaVuSans-6b"/>
      <use x="469.8125" xlink:href="#DejaVuSans-65"/>
      <use x="531.3359375" xlink:href="#DejaVuSans-6c"/>
      <use x="559.119140625" xlink:href="#DejaVuSans-69"/>
      <use x="586.90234375" xlink:href="#DejaVuSans-68"/>
      <use x="650.28125" xlink:href="#DejaVuSans-6f"/>
      <use x="711.462890625" xlink:href="#DejaVuSans-6f"/>
      <use x="772.64453125" xlink:href="#DejaVuSans-64"/>
     </g>
    </g>
    <g id="text_17">
     <!-- 1e8 -->
     <g transform="translate(124.875 53.7)scale(0.12 -0.12)">
      <use xlink:href="#DejaVuSans-31"/>
      <use x="63.623046875" xlink:href="#DejaVuSans-65"/>
      <use x="125.146484375" xlink:href="#DejaVuSans-38"/>
     </g>
    </g>
   </g>
   <g id="patch_3">
    <path d="
M124.875 56.7
L899.1 56.7" style="fill:none;stroke:#000000;"/>
   </g>
   <g id="patch_4">
    <path d="
M899.1 510.3
L899.1 56.7" style="fill:none;stroke:#000000;"/>
   </g>
   <g id="patch_5">
    <path d="
M124.875 510.3
L899.1 510.3" style="fill:none;stroke:#000000;"/>
   </g>
   <g id="patch_6">
    <path d="
M124.875 510.3
L124.875 56.7" style="fill:none;stroke:#000000;"/>
   </g>
   <g id="text_18">
    <!-- pubmed1m Dataset, madrid-1Gbps-ethernet -->
    <defs>
     <path d="
M11.7188 12.4062
L22.0156 12.4062
L22.0156 4
L14.0156 -11.625
L7.71875 -11.625
L11.7188 4
z
" id="DejaVuSans-2c"/>
     <path d="
M4.89062 31.3906
L31.2031 31.3906
L31.2031 23.3906
L4.89062 23.3906
z
" id="DejaVuSans-2d"/>
     <path d="
M19.6719 64.7969
L19.6719 8.10938
L31.5938 8.10938
Q46.6875 8.10938 53.6875 14.9375
Q60.6875 21.7812 60.6875 36.5312
Q60.6875 51.1719 53.6875 57.9844
Q46.6875 64.7969 31.5938 64.7969
z

M9.8125 72.9062
L30.0781 72.9062
Q51.2656 72.9062 61.1719 64.0938
Q71.0938 55.2812 71.0938 36.5312
Q71.0938 17.6719 61.125 8.82812
Q51.1719 0 30.0781 0
L9.8125 0
z
" id="DejaVuSans-44"/>
     <path d="
M59.5156 10.4062
L59.5156 29.9844
L43.4062 29.9844
L43.4062 38.0938
L69.2812 38.0938
L69.2812 6.78125
Q63.5781 2.73438 56.6875 0.65625
Q49.8125 -1.42188 42 -1.42188
Q24.9062 -1.42188 15.25 8.5625
Q5.60938 18.5625 5.60938 36.375
Q5.60938 54.25 15.25 64.2344
Q24.9062 74.2188 42 74.2188
Q49.125 74.2188 55.5469 72.4531
Q61.9688 70.7031 67.3906 67.2812
L67.3906 56.7812
Q61.9219 61.4219 55.7656 63.7656
Q49.6094 66.1094 42.8281 66.1094
Q29.4375 66.1094 22.7188 58.6406
Q16.0156 51.1719 16.0156 36.375
Q16.0156 21.625 22.7188 14.1562
Q29.4375 6.6875 42.8281 6.6875
Q48.0469 6.6875 52.1406 7.59375
Q56.25 8.5 59.5156 10.4062" id="DejaVuSans-47"/>
     <path d="
M34.2812 27.4844
Q23.3906 27.4844 19.1875 25
Q14.9844 22.5156 14.9844 16.5
Q14.9844 11.7188 18.1406 8.90625
Q21.2969 6.10938 26.7031 6.10938
Q34.1875 6.10938 38.7031 11.4062
Q43.2188 16.7031 43.2188 25.4844
L43.2188 27.4844
z

M52.2031 31.2031
L52.2031 0
L43.2188 0
L43.2188 8.29688
Q40.1406 3.32812 35.5469 0.953125
Q30.9531 -1.42188 24.3125 -1.42188
Q15.9219 -1.42188 10.9531 3.29688
Q6 8.01562 6 15.9219
Q6 25.1406 12.1719 29.8281
Q18.3594 34.5156 30.6094 34.5156
L43.2188 34.5156
L43.2188 35.4062
Q43.2188 41.6094 39.1406 45
Q35.0625 48.3906 27.6875 48.3906
Q23 48.3906 18.5469 47.2656
Q14.1094 46.1406 10.0156 43.8906
L10.0156 52.2031
Q14.9375 54.1094 19.5781 55.0469
Q24.2188 56 28.6094 56
Q40.4844 56 46.3438 49.8438
Q52.2031 43.7031 52.2031 31.2031" id="DejaVuSans-61"/>
     <path d="
M48.6875 27.2969
Q48.6875 37.2031 44.6094 42.8438
Q40.5312 48.4844 33.4062 48.4844
Q26.2656 48.4844 22.1875 42.8438
Q18.1094 37.2031 18.1094 27.2969
Q18.1094 17.3906 22.1875 11.75
Q26.2656 6.10938 33.4062 6.10938
Q40.5312 6.10938 44.6094 11.75
Q48.6875 17.3906 48.6875 27.2969
M18.1094 46.3906
Q20.9531 51.2656 25.2656 53.625
Q29.5938 56 35.5938 56
Q45.5625 56 51.7812 48.0938
Q58.0156 40.1875 58.0156 27.2969
Q58.0156 14.4062 51.7812 6.48438
Q45.5625 -1.42188 35.5938 -1.42188
Q29.5938 -1.42188 25.2656 0.953125
Q20.9531 3.32812 18.1094 8.20312
L18.1094 0
L9.07812 0
L9.07812 75.9844
L18.1094 75.9844
z
" id="DejaVuSans-62"/>
     <path d="
M18.1094 8.20312
L18.1094 -20.7969
L9.07812 -20.7969
L9.07812 54.6875
L18.1094 54.6875
L18.1094 46.3906
Q20.9531 51.2656 25.2656 53.625
Q29.5938 56 35.5938 56
Q45.5625 56 51.7812 48.0938
Q58.0156 40.1875 58.0156 27.2969
Q58.0156 14.4062 51.7812 6.48438
Q45.5625 -1.42188 35.5938 -1.42188
Q29.5938 -1.42188 25.2656 0.953125
Q20.9531 3.32812 18.1094 8.20312
M48.6875 27.2969
Q48.6875 37.2031 44.6094 42.8438
Q40.5312 48.4844 33.4062 48.4844
Q26.2656 48.4844 22.1875 42.8438
Q18.1094 37.2031 18.1094 27.2969
Q18.1094 17.3906 22.1875 11.75
Q26.2656 6.10938 33.4062 6.10938
Q40.5312 6.10938 44.6094 11.75
Q48.6875 17.3906 48.6875 27.2969" id="DejaVuSans-70"/>
     <path d="
M41.1094 46.2969
Q39.5938 47.1719 37.8125 47.5781
Q36.0312 48 33.8906 48
Q26.2656 48 22.1875 43.0469
Q18.1094 38.0938 18.1094 28.8125
L18.1094 0
L9.07812 0
L9.07812 54.6875
L18.1094 54.6875
L18.1094 46.1875
Q20.9531 51.1719 25.4844 53.5781
Q30.0312 56 36.5312 56
Q37.4531 56 38.5781 55.875
Q39.7031 55.7656 41.0625 55.5156
z
" id="DejaVuSans-72"/>
    </defs>
    <g transform="translate(351.115875 51.7)scale(0.144 -0.144)">
     <use xlink:href="#DejaVuSans-70"/>
     <use x="63.4765625" xlink:href="#DejaVuSans-75"/>
     <use x="126.85546875" xlink:href="#DejaVuSans-62"/>
     <use x="190.33203125" xlink:href="#DejaVuSans-6d"/>
     <use x="287.744140625" xlink:href="#DejaVuSans-65"/>
     <use x="349.267578125" xlink:href="#DejaVuSans-64"/>
     <use x="412.744140625" xlink:href="#DejaVuSans-31"/>
     <use x="476.3671875" xlink:href="#DejaVuSans-6d"/>
     <use x="573.779296875" xlink:href="#DejaVuSans-20"/>
     <use x="605.56640625" xlink:href="#DejaVuSans-44"/>
     <use x="682.568359375" xlink:href="#DejaVuSans-61"/>
     <use x="743.84765625" xlink:href="#DejaVuSans-74"/>
     <use x="783.056640625" xlink:href="#DejaVuSans-61"/>
     <use x="844.3359375" xlink:href="#DejaVuSans-73"/>
     <use x="896.435546875" xlink:href="#DejaVuSans-65"/>
     <use x="957.958984375" xlink:href="#DejaVuSans-74"/>
     <use x="997.16796875" xlink:href="#DejaVuSans-2c"/>
     <use x="1028.95507812" xlink:href="#DejaVuSans-20"/>
     <use x="1060.7421875" xlink:href="#DejaVuSans-6d"/>
     <use x="1158.15429688" xlink:href="#DejaVuSans-61"/>
     <use x="1219.43359375" xlink:href="#DejaVuSans-64"/>
     <use x="1282.91015625" xlink:href="#DejaVuSans-72"/>
     <use x="1324.0234375" xlink:href="#DejaVuSans-69"/>
     <use x="1351.80664062" xlink:href="#DejaVuSans-64"/>
     <use x="1415.28320312" xlink:href="#DejaVuSans-2d"/>
     <use x="1451.3671875" xlink:href="#DejaVuSans-31"/>
     <use x="1514.99023438" xlink:href="#DejaVuSans-47"/>
     <use x="1592.48046875" xlink:href="#DejaVuSans-62"/>
     <use x="1655.95703125" xlink:href="#DejaVuSans-70"/>
     <use x="1719.43359375" xlink:href="#DejaVuSans-73"/>
     <use x="1771.53320312" xlink:href="#DejaVuSans-2d"/>
     <use x="1807.6171875" xlink:href="#DejaVuSans-65"/>
     <use x="1869.140625" xlink:href="#DejaVuSans-74"/>
     <use x="1908.34960938" xlink:href="#DejaVuSans-68"/>
     <use x="1971.72851562" xlink:href="#DejaVuSans-65"/>
     <use x="2033.25195312" xlink:href="#DejaVuSans-72"/>
     <use x="2072.61523438" xlink:href="#DejaVuSans-6e"/>
     <use x="2135.99414062" xlink:href="#DejaVuSans-65"/>
     <use x="2197.51757812" xlink:href="#DejaVuSans-74"/>
    </g>
   </g>
   <g id="legend_1">
    <g id="patch_7">
     <path d="
M739.064 152.766
L891.9 152.766
L891.9 63.9
L739.064 63.9
L739.064 152.766
z
" style="fill:#ffffff;stroke:#000000;"/>
    </g>
    <g id="line2d_33">
     <path d="
M749.144 75.5617
L769.304 75.5617" style="fill:none;stroke:#bf00bf;"/>
    </g>
    <g id="line2d_34">
     <g>
      <use style="fill:#bf00bf;stroke:#bf00bf;stroke-linecap:butt;stroke-width:0.5;" x="749.14425" xlink:href="#mc0debf2262" y="75.56175"/>
      <use style="fill:#bf00bf;stroke:#bf00bf;stroke-linecap:butt;stroke-width:0.5;" x="769.30425" xlink:href="#mc0debf2262" y="75.56175"/>
     </g>
    </g>
    <g id="text_19">
     <!-- ldartt-prime -->
     <g transform="translate(785.14425 80.60175)scale(0.144 -0.144)">
      <use xlink:href="#DejaVuSans-6c"/>
      <use x="27.783203125" xlink:href="#DejaVuSans-64"/>
      <use x="91.259765625" xlink:href="#DejaVuSans-61"/>
      <use x="152.5390625" xlink:href="#DejaVuSans-72"/>
      <use x="193.65234375" xlink:href="#DejaVuSans-74"/>
      <use x="232.861328125" xlink:href="#DejaVuSans-74"/>
      <use x="272.0703125" xlink:href="#DejaVuSans-2d"/>
      <use x="308.154296875" xlink:href="#DejaVuSans-70"/>
      <use x="371.630859375" xlink:href="#DejaVuSans-72"/>
      <use x="412.744140625" xlink:href="#DejaVuSans-69"/>
      <use x="440.52734375" xlink:href="#DejaVuSans-6d"/>
      <use x="537.939453125" xlink:href="#DejaVuSans-65"/>
     </g>
    </g>
    <g id="line2d_35">
     <path d="
M749.144 96.6983
L769.304 96.6983" style="fill:none;stroke:#ff0000;"/>
    </g>
    <g id="line2d_36">
     <g>
      <use style="fill:#ff0000;stroke:#ff0000;stroke-linecap:butt;stroke-width:0.5;" x="749.14425" xlink:href="#mc0eafcda7b" y="96.69825"/>
      <use style="fill:#ff0000;stroke:#ff0000;stroke-linecap:butt;stroke-width:0.5;" x="769.30425" xlink:href="#mc0eafcda7b" y="96.69825"/>
     </g>
    </g>
    <g id="text_20">
     <!-- ldartt-dual -->
     <g transform="translate(785.14425 101.73825)scale(0.144 -0.144)">
      <use xlink:href="#DejaVuSans-6c"/>
      <use x="27.783203125" xlink:href="#DejaVuSans-64"/>
      <use x="91.259765625" xlink:href="#DejaVuSans-61"/>
      <use x="152.5390625" xlink:href="#DejaVuSans-72"/>
      <use x="193.65234375" xlink:href="#DejaVuSans-74"/>
      <use x="232.861328125" xlink:href="#DejaVuSans-74"/>
      <use x="272.0703125" xlink:href="#DejaVuSans-2d"/>
      <use x="308.154296875" xlink:href="#DejaVuSans-64"/>
      <use x="371.630859375" xlink:href="#DejaVuSans-75"/>
      <use x="435.009765625" xlink:href="#DejaVuSans-61"/>
      <use x="496.2890625" xlink:href="#DejaVuSans-6c"/>
     </g>
    </g>
    <g id="line2d_37">
     <path d="
M749.144 117.835
L769.304 117.835" style="fill:none;stroke:#0000ff;"/>
    </g>
    <g id="line2d_38">
     <g>
      <use style="fill:#0000ff;stroke:#0000ff;stroke-linecap:butt;stroke-width:0.5;" x="749.14425" xlink:href="#m60516ac18e" y="117.83475"/>
      <use style="fill:#0000ff;stroke:#0000ff;stroke-linecap:butt;stroke-width:0.5;" x="769.30425" xlink:href="#m60516ac18e" y="117.83475"/>
     </g>
    </g>
    <g id="text_21">
     <!-- petuum-prime -->
     <g transform="translate(785.14425 122.87475)scale(0.144 -0.144)">
      <use xlink:href="#DejaVuSans-70"/>
      <use x="63.4765625" xlink:href="#DejaVuSans-65"/>
      <use x="125.0" xlink:href="#DejaVuSans-74"/>
      <use x="164.208984375" xlink:href="#DejaVuSans-75"/>
      <use x="227.587890625" xlink:href="#DejaVuSans-75"/>
      <use x="290.966796875" xlink:href="#DejaVuSans-6d"/>
      <use x="388.37890625" xlink:href="#DejaVuSans-2d"/>
      <use x="424.462890625" xlink:href="#DejaVuSans-70"/>
      <use x="487.939453125" xlink:href="#DejaVuSans-72"/>
      <use x="529.052734375" xlink:href="#DejaVuSans-69"/>
      <use x="556.8359375" xlink:href="#DejaVuSans-6d"/>
      <use x="654.248046875" xlink:href="#DejaVuSans-65"/>
     </g>
    </g>
    <g id="line2d_39">
     <path d="
M749.144 138.971
L769.304 138.971" style="fill:none;stroke:#008000;"/>
    </g>
    <g id="line2d_40">
     <g>
      <use style="fill:#008000;stroke:#008000;stroke-linecap:butt;stroke-width:0.5;" x="749.14425" xlink:href="#m78e0c95df6" y="138.97125"/>
      <use style="fill:#008000;stroke:#008000;stroke-linecap:butt;stroke-width:0.5;" x="769.30425" xlink:href="#m78e0c95df6" y="138.97125"/>
     </g>
    </g>
    <g id="text_22">
     <!-- petuum-dual -->
     <g transform="translate(785.14425 144.01125)scale(0.144 -0.144)">
      <use xlink:href="#DejaVuSans-70"/>
      <use x="63.4765625" xlink:href="#DejaVuSans-65"/>
      <use x="125.0" xlink:href="#DejaVuSans-74"/>
      <use x="164.208984375" xlink:href="#DejaVuSans-75"/>
      <use x="227.587890625" xlink:href="#DejaVuSans-75"/>
      <use x="290.966796875" xlink:href="#DejaVuSans-6d"/>
      <use x="388.37890625" xlink:href="#DejaVuSans-2d"/>
      <use x="424.462890625" xlink:href="#DejaVuSans-64"/>
      <use x="487.939453125" xlink:href="#DejaVuSans-75"/>
      <use x="551.318359375" xlink:href="#DejaVuSans-61"/>
      <use x="612.59765625" xlink:href="#DejaVuSans-6c"/>
     </g>
    </g>
   </g>
  </g>
  <g id="text_23">
   <!-- LDA Trainers Accuracy -->
   <defs>
    <path d="
M32.1719 -5.07812
Q28.375 -14.8438 24.75 -17.8125
Q21.1406 -20.7969 15.0938 -20.7969
L7.90625 -20.7969
L7.90625 -13.2812
L13.1875 -13.2812
Q16.8906 -13.2812 18.9375 -11.5156
Q21 -9.76562 23.4844 -3.21875
L25.0938 0.875
L2.98438 54.6875
L12.5 54.6875
L29.5938 11.9219
L46.6875 54.6875
L56.2031 54.6875
z
" id="DejaVuSans-79"/>
    <path d="
M34.1875 63.1875
L20.7969 26.9062
L47.6094 26.9062
z

M28.6094 72.9062
L39.7969 72.9062
L67.5781 0
L57.3281 0
L50.6875 18.7031
L17.8281 18.7031
L11.1875 0
L0.78125 0
z
" id="DejaVuSans-41"/>
   </defs>
   <g transform="translate(432.8325 20.458125)scale(0.12 -0.12)">
    <use xlink:href="#DejaVuSans-4c"/>
    <use x="55.712890625" xlink:href="#DejaVuSans-44"/>
    <use x="130.96484375" xlink:href="#DejaVuSans-41"/>
    <use x="199.373046875" xlink:href="#DejaVuSans-20"/>
    <use x="231.16015625" xlink:href="#DejaVuSans-54"/>
    <use x="277.494140625" xlink:href="#DejaVuSans-72"/>
    <use x="318.607421875" xlink:href="#DejaVuSans-61"/>
    <use x="379.88671875" xlink:href="#DejaVuSans-69"/>
    <use x="407.669921875" xlink:href="#DejaVuSans-6e"/>
    <use x="471.048828125" xlink:href="#DejaVuSans-65"/>
    <use x="532.572265625" xlink:href="#DejaVuSans-72"/>
    <use x="573.685546875" xlink:href="#DejaVuSans-73"/>
    <use x="625.78515625" xlink:href="#DejaVuSans-20"/>
    <use x="657.572265625" xlink:href="#DejaVuSans-41"/>
    <use x="724.23046875" xlink:href="#DejaVuSans-63"/>
    <use x="779.2109375" xlink:href="#DejaVuSans-63"/>
    <use x="834.19140625" xlink:href="#DejaVuSans-75"/>
    <use x="897.5703125" xlink:href="#DejaVuSans-72"/>
    <use x="938.68359375" xlink:href="#DejaVuSans-61"/>
    <use x="999.962890625" xlink:href="#DejaVuSans-63"/>
    <use x="1054.94335938" xlink:href="#DejaVuSans-79"/>
   </g>
  </g>
 </g>
 <defs>
  <clipPath id="pf532fa5deb">
   <rect height="453.6" width="774.225" x="124.875" y="56.7"/>
  </clipPath>
 </defs>
</svg>
